<svg xmlns="http://www.w3.org/2000/svg" width="15" height="17" viewBox="0 0 15 17">
    <g fill="none" fill-rule="evenodd">
        <path d="M-1-.182h16.823v17.003H-1z"/>
        <g fill="#FFF" fill-rule="nonzero">
            <path d="M11.839 6.082c0 4.922 2.213 4.475 2.213 6.712 0 0 0 .895-.885.895H1.657c-.886 0-.886-.895-.886-.895 0-2.237 2.213-1.79 2.213-6.712 0-2.47 1.983-4.474 4.427-4.474 2.445 0 4.428 2.004 4.428 4.474"/>
            <path d="M8.74 1.608C8.74.867 8.145.266 7.41.266c-.733 0-1.328.6-1.328 1.342 0 .741.595 1.342 1.328 1.342.734 0 1.329-.6 1.329-1.342M7.411 16.374a1.78 1.78 0 0 0 1.771-1.79H5.641c0 .988.793 1.79 1.77 1.79"/>
        </g>
    </g>
</svg>
