<svg xmlns="http://www.w3.org/2000/svg" width="24" height="24" viewBox="0 0 24 24">
    <g fill="none" fill-rule="evenodd">
        <path d="M0 0h24v24H0z"/>
        <path fill="#979797" d="M13.857 4a8.144 8.144 0 0 0-8.143 8.143H3l3.52 3.52.063.126 3.655-3.646H7.524a6.329 6.329 0 0 1 6.333-6.333 6.329 6.329 0 0 1 6.333 6.333 6.329 6.329 0 0 1-6.333 6.333 6.282 6.282 0 0 1-4.47-1.864l-1.284 1.285a8.102 8.102 0 0 0 5.754 2.389 8.144 8.144 0 0 0 0-16.286zm-.905 4.524v4.524l3.873 2.298.651-1.095-3.166-1.882V8.524h-1.358z"/>
    </g>
</svg>
