<svg xmlns="http://www.w3.org/2000/svg" width="18" height="16" viewBox="0 0 18 16">
    <path fill="#FFF" fill-rule="nonzero" d="M12.375 11.188V7.934c0-.599.504-1.085 1.125-1.085h3.375V4.68c0-.599-.504-1.084-1.125-1.084h-1.291L13.909.45a.539.539 0 0 0-.231-.353.599.599 0 0 0-.426-.09L2.149 1.978a.563.563 0 0 0-.364.229.525.525 0 0 0-.085.41l.201.979h-.775C.504 3.596 0 4.08 0 4.68v9.762c0 .599.504 1.084 1.125 1.084H15.75c.621 0 1.125-.485 1.125-1.084v-2.17H13.5c-.621 0-1.125-.485-1.125-1.084zM2.913 2.945l9.982-1.771.423 2.422H3.047l-.134-.651zm14.524 4.989H13.5v3.254h3.938c.31 0 .562-.243.562-.543V8.476c0-.3-.252-.542-.563-.542zm-2.25 2.17a.553.553 0 0 1-.562-.543c0-.3.252-.542.563-.542.31 0 .562.242.562.542 0 .3-.252.542-.563.542z"/>
</svg>
