<svg xmlns="http://www.w3.org/2000/svg" width="24" height="24" viewBox="0 0 24 24">
    <g fill="none" fill-rule="evenodd">
        <path d="M0 0h24v24H0z"/>
        <path fill="#FFF" fill-rule="nonzero" d="M15.6 5A4.79 4.79 0 0 0 12 6.672 4.79 4.79 0 0 0 8.4 5 4.357 4.357 0 0 0 4 9.4c0 3.024 2.72 5.488 6.84 9.232L12 19.68l1.16-1.056C17.28 14.888 20 12.424 20 9.4 20 6.936 18.064 5 15.6 5zm-3.52 12.44l-.08.08-.08-.08C8.112 13.992 5.6 11.712 5.6 9.4c0-1.6 1.2-2.8 2.8-2.8 1.232 0 2.432.792 2.856 1.888h1.496C13.168 7.392 14.368 6.6 15.6 6.6c1.6 0 2.8 1.2 2.8 2.8 0 2.312-2.512 4.592-6.32 8.04z"/>
    </g>
</svg>
