<svg xmlns="http://www.w3.org/2000/svg" width="16" height="15" viewBox="0 0 16 15">
    <g fill="#FFF" fill-rule="evenodd" transform="translate(-717 -21)">
        <path fill-rule="nonzero" d="M731.878 34.3l-3.671-3.83a6.084 6.084 0 0 0 1.07-3.47c0-3.31-2.593-6-5.783-6-3.19 0-5.782 2.69-5.782 6s2.593 6 5.782 6c1.253 0 2.39-.41 3.344-1.11l3.691 3.81c.183.2.434.3.675.3a.87.87 0 0 0 .674-.3c.18-.187.282-.44.282-.705 0-.265-.101-.518-.282-.705v.01zm-8.384-2.6c-2.495 0-4.529-2.11-4.529-4.7 0-2.59 2.034-4.7 4.53-4.7 2.495 0 4.529 2.11 4.529 4.7 0 2.59-2.034 4.7-4.53 4.7z"/>
    </g>
</svg>
