<svg xmlns="http://www.w3.org/2000/svg" width="117" height="127" viewBox="0 0 117 127">
    <defs>
        <filter id="a" width="107.9%" height="107.7%" x="-4.3%" y="-2.4%" filterUnits="objectBoundingBox">
            <feOffset dy="2" in="SourceAlpha" result="shadowOffsetOuter1"/>
            <feGaussianBlur in="shadowOffsetOuter1" result="shadowBlurOuter1" stdDeviation="1"/>
            <feColorMatrix in="shadowBlurOuter1" result="shadowMatrixOuter1" values="0 0 0 0 0 0 0 0 0 0 0 0 0 0 0 0 0 0 0.223137455 0"/>
            <feMerge>
                <feMergeNode in="shadowMatrixOuter1"/>
                <feMergeNode in="SourceGraphic"/>
            </feMerge>
        </filter>
    </defs>
    <g fill="none" fill-rule="evenodd" filter="url(#a)" transform="translate(.265)">
        <path fill="#F6851B" d="M44.844 1.538L26.711 14.611l-8.723 20.157-2.206 20.29 21.888 3.555.358-22.38 10.803-8.511 11.226 3.94 11.976 9.52 16.792.74 12.923-14.694-.204-19.562-11.765 7.67-8.647-7.096L69.747.167z"/>
        <path stroke="#F6851B" stroke-width=".5" d="M37.67 58.613l.358-22.38L48.83 27.72l11.226 3.941 11.976 9.52 16.792.74 12.922-14.694-.203-19.562-11.764 7.67-8.648-7.096L69.748.167 44.844 1.538 26.711 14.611l-8.723 20.157-2.206 20.29z"/>
        <path fill="#F6851B" d="M30.815 29.211l-11.044 8.3L9.439 52.667v10.517L1.601 77.476v8.15L.176 106.312l8.357.217 3.4-16.306 12.113-13.102 2.138 5.915-.383 9.698 8.22 12.162-3.206 9.032 41.32 10.883 8.859-2.854-4.051-4.316-14.14-7.261 6.394-9.268 29.976 19.461 17.438-.355-.421-2.488-1.77-.842-12.949-7.25-23.869-25.55-4.34-25.137-11.447-17.657L42.928 27.08z"/>
        <path stroke="#F6851B" stroke-width=".5" d="M73.262 58.952L61.815 41.295 42.928 27.079 30.815 29.21l-11.044 8.3L9.439 52.667v10.517L1.601 77.476v8.15L.176 106.312l8.357.217 3.4-16.306L24.046 77.12l2.138 5.917-.383 9.696 8.22 12.163-3.206 9.032 41.32 10.883 8.859-2.854-4.051-4.315-14.14-7.262 6.395-9.268 29.975 19.461 17.437-.355-.42-2.488-1.77-.842-12.949-7.25-23.869-25.55z"/>
        <path fill="#D7C1B3" d="M63.628.544L74.25 12.468l11.427 8.03-12.655 8.482-9.313 5.625 8.106 6.825 17.009.491 12.923-14.693-.204-19.562-12.878 4.945L69.747.167z"/>
        <path stroke="#D7C1B3" stroke-width=".5" d="M63.628.544L74.25 12.468l11.427 8.03-12.655 8.482-9.313 5.625 8.106 6.825 17.009.491 12.923-14.693-.204-19.562-12.877 4.945L69.747.167z"/>
        <path fill="#D7C1B3" d="M41.462 71.334v6.555L34.57 88.637l3.446 2.962-4.324 13.297-8.067-11.93.559-9.93-2.138-5.586 3.631-12.307h9.148z"/>
        <path stroke="#D7C1B3" stroke-width=".5" d="M41.462 71.334v6.555L34.57 88.637l3.446 2.962-4.324 13.297-8.067-11.93.559-9.93-2.138-5.586 3.631-12.307h9.148z"/>
        <path fill="#763D16" d="M13.606 72.386l-7.18 2.436-4.825 2.655-1.425 28.835 3.783 2.242 8.776-.683-1.967-5.8 1.165-11.848L23.716 77.45l-5.515-1.632v-6.952z"/>
        <path stroke="#763D16" stroke-width=".5" d="M6.427 74.822l7.179-2.436 4.595-3.52v6.952l5.515 1.631-11.783 12.774-1.165 11.849 1.967 5.8-8.776.682-3.783-2.242 1.425-28.836z"/>
        <path fill="#763D16" d="M42.45 114.257v3.001l34.082 8.758 4.462-4.059-3.391-5.302-4.284-2.398-10.515-3.877-13.952-1.003z"/>
        <path stroke="#763D16" stroke-width=".5" d="M42.45 114.257l6.403-4.88 13.951 1.003 10.514 3.877 4.285 2.398 3.39 5.302-4.461 4.059-34.081-8.758z"/>
        <path fill="#763D16" d="M72.134 108.407l27.04 12.166 17.436-.356-.09-2.487-7.597-3.884-17.512-9.314z"/>
        <path stroke="#763D16" stroke-width=".5" d="M72.134 108.407l27.04 12.166 17.436-.356-.09-2.487-7.597-3.884-17.512-9.314z"/>
        <path fill="#E4761B" d="M102.872 98.038l-3.375 11.7-7.054-1.923z"/>
        <path stroke="#E4761B" stroke-width=".5" d="M102.872 98.038l-3.375 11.7-7.054-1.923z"/>
        <path fill="#E4761B" d="M92.443 107.815l6.803-9.299 3.383-.623z"/>
        <path stroke="#E4761B" stroke-width=".5" d="M92.443 107.815l6.803-9.299 3.383-.623z"/>
        <path fill="#F6851B" d="M97.803 88.483l3.402-2.35 1.885 11.487-5.287-9.137zm0 0l5.287 9.137-3.844.896-1.443-10.033z"/>
        <path stroke="#F6851B" stroke-width=".5" d="M97.803 88.483l3.402-2.35 1.885 11.487-5.287-9.137zm0 0l5.287 9.137-3.844.896-1.443-10.033z"/>
        <path fill="#763D16" d="M102.457 82.401l-8.983-.822 9.292-1.807-.31 2.63zm-8.983-.822l9.778-3.996-.486 2.19-9.292 1.806z"/>
        <path stroke="#763D16" stroke-width=".5" d="M102.457 82.401l-8.983-.822 9.292-1.807-.31 2.63zm-8.983-.822l9.778-3.996-.486 2.19-9.292 1.806z"/>
        <path fill="#763D16" d="M102.457 82.401l.309-2.629 1.31 1.087-1.62 1.542zm1.958-3.892l-1.65 1.263.487-2.189 1.163.926zm-1.958 3.892l-1.252 3.732-7.731-4.554 8.983.822z"/>
        <path stroke="#763D16" stroke-width=".5" d="M102.457 82.401l.309-2.629 1.31 1.087-1.62 1.542zm1.958-3.892l-1.65 1.263.487-2.189 1.163.926zm-1.958 3.892l-1.252 3.732-7.731-4.554 8.983.822z"/>
        <path fill="#E2761B" d="M84.86 104.862l2.444.779 5.139 2.174z"/>
        <path stroke="#E2761B" stroke-width=".5" d="M84.86 104.862l2.444.779 5.139 2.174z"/>
        <path fill="#763D16" d="M101.205 86.133l-10.147-3.335 2.416-1.22 7.73 4.555zm0 0l1.252-3.732 1.075.823-2.327 2.909z"/>
        <path stroke="#763D16" stroke-width=".5" d="M101.205 86.133l-10.147-3.335 2.416-1.22 7.73 4.555zm0 0l1.252-3.732 1.075.823-2.327 2.909z"/>
        <path fill="#763D16" d="M95.889 70.136l-2.415 11.443-2.415 1.22z"/>
        <path stroke="#763D16" stroke-width=".5" d="M95.889 70.136l-2.415 11.443-2.415 1.22z"/>
        <path fill="#763D16" d="M103.252 77.583l-9.778 3.996 2.415-11.444z"/>
        <path stroke="#763D16" stroke-width=".5" d="M103.252 77.583l-9.778 3.996 2.415-11.444z"/>
        <path fill="#763D16" d="M95.889 70.136l10.205-1.175-2.842 8.622z"/>
        <path stroke="#763D16" stroke-width=".5" d="M95.889 70.136l10.205-1.175-2.842 8.622z"/>
        <path fill="#F6851B" d="M101.205 86.133l-3.402 2.35-6.745-5.685z"/>
        <path stroke="#F6851B" stroke-width=".5" d="M101.205 86.133l-3.402 2.35-6.745-5.685z"/>
        <path fill="#763D16" d="M105.652 60.72l.442 8.24-10.205 1.176z"/>
        <path stroke="#763D16" stroke-width=".5" d="M105.652 60.72l.442 8.24-10.205 1.176z"/>
        <path fill="#E2761B" d="M105.652 60.72L85.257 75.511l-.265-10.033z"/>
        <path stroke="#E2761B" stroke-width=".5" d="M105.652 60.72L85.257 75.511l-.265-10.033z"/>
        <path fill="#F6851B" d="M69.824 64.274l15.168 1.205.265 10.033z"/>
        <path stroke="#F6851B" stroke-width=".5" d="M69.824 64.274l15.168 1.205.265 10.033z"/>
        <path fill="#763D16" d="M91.059 82.798l-5.802-7.286 10.632-5.376z"/>
        <path stroke="#763D16" stroke-width=".5" d="M91.059 82.798l-5.802-7.286 10.632-5.376z"/>
        <path fill="#E4761B" d="M91.059 82.798l6.744 5.685-9.469 1.043z"/>
        <path stroke="#E4761B" stroke-width=".5" d="M91.059 82.798l6.744 5.685-9.469 1.043z"/>
        <path fill="#E4761B" d="M88.335 89.526l-3.078-14.014 5.802 7.286z"/>
        <path stroke="#E4761B" stroke-width=".5" d="M88.335 89.526l-3.078-14.014 5.802 7.286z"/>
        <path fill="#763D16" d="M95.889 70.136l-10.632 5.376 20.395-14.793z"/>
        <path stroke="#763D16" stroke-width=".5" d="M95.889 70.136l-10.632 5.376 20.395-14.793z"/>
        <path fill="#C0AD9E" d="M69.957 107.58l4.815 5.009-6.553-5.95z"/>
        <path stroke="#C0AD9E" stroke-width=".5" d="M69.957 107.58l4.815 5.009-6.553-5.95z"/>
        <path fill="#CD6116" d="M92.443 107.815l2.283-8.653 4.52-.646z"/>
        <path stroke="#CD6116" stroke-width=".5" d="M92.443 107.815l2.283-8.653 4.52-.646z"/>
        <path fill="#E2761B" d="M50.43 83.474l8.335-8.74-7.26 7.697z"/>
        <path stroke="#E2761B" stroke-width=".5" d="M50.43 83.474l8.335-8.74-7.26 7.697z"/>
        <path fill="#F6851B" d="M85.257 75.512l-8.114-.265-7.32-10.973 15.434 11.238zm13.99 23.004l-4.521.646 3.077-10.679 1.443 10.033z"/>
        <path stroke="#F6851B" stroke-width=".5" d="M85.257 75.512l-8.114-.265-7.32-10.973 15.434 11.238zm13.99 23.004l-4.521.646 3.077-10.679 1.443 10.033z"/>
        <path fill="#E4751F" d="M97.803 88.483l-3.077 10.68-.251-5.216z"/>
        <path stroke="#E4751F" stroke-width=".5" d="M97.803 88.483l-3.077 10.68-.251-5.216z"/>
        <path fill="#CD6116" d="M88.335 89.526l9.468-1.043-3.328 5.464z"/>
        <path stroke="#CD6116" stroke-width=".5" d="M88.335 89.526l9.468-1.043-3.328 5.464z"/>
        <path fill="#F6851B" d="M77.143 75.247l8.114.265 3.077 14.014z"/>
        <path stroke="#F6851B" stroke-width=".5" d="M77.143 75.247l8.114.265 3.077 14.014z"/>
        <path fill="#E4761B" d="M69.81 110.65l-19.026 5.875-3.8-14.469 22.825 8.594zm7.333-35.403L55.246 55.034l14.578 9.24 7.319 10.973z"/>
        <path stroke="#E4761B" stroke-width=".5" d="M69.81 110.65l-19.026 5.875-3.8-14.469 22.825 8.594zm7.333-35.403L55.246 55.034l14.578 9.24 7.319 10.973z"/>
        <path fill="#763D16" d="M53.257 87.087l7.187-5.626 6.022 1.396z"/>
        <path stroke="#763D16" stroke-width=".5" d="M53.257 87.087l7.187-5.626 6.022 1.396z"/>
        <path fill="#763D16" d="M66.466 82.857l-6.022-1.396 3.225-13.28z"/>
        <path stroke="#763D16" stroke-width=".5" d="M66.466 82.857l-6.022-1.396 3.225-13.28z"/>
        <path fill="#763D16" d="M51.505 82.43l8.939-.969-7.187 5.626z"/>
        <path stroke="#763D16" stroke-width=".5" d="M51.505 82.43l8.939-.969-7.187 5.626z"/>
        <path fill="#CD6116" d="M94.475 93.947l-3.71.225-2.43-4.646z"/>
        <path stroke="#CD6116" stroke-width=".5" d="M94.475 93.947l-3.71.225-2.43-4.646z"/>
        <path fill="#763D16" d="M51.505 82.43l-.633-3.334 9.572 2.365z"/>
        <path stroke="#763D16" stroke-width=".5" d="M51.505 82.43l-.633-3.334 9.572 2.365z"/>
        <path fill="#233447" d="M89.998 96.283l.766-1.813 3.711-.523z"/>
        <path stroke="#233447" stroke-width=".5" d="M89.998 96.283l.766-1.813 3.711-.523z"/>
        <path fill="#F6851B" d="M94.726 99.162l-4.728-2.879 4.477-2.336z"/>
        <path stroke="#F6851B" stroke-width=".5" d="M94.726 99.162l-4.728-2.879 4.477-2.336z"/>
        <path fill="#763D16" d="M63.669 68.182l13.474 7.065-10.677 7.61-2.797-14.675zm0 0l-3.225 13.28L50.09 76.29l13.578-8.108zm-3.225 13.28l-9.572-2.366-.78-2.806 10.352 5.171z"/>
        <path stroke="#763D16" stroke-width=".5" d="M63.669 68.182l13.474 7.065-10.677 7.61-2.797-14.675zm0 0l-3.225 13.28L50.09 76.29l13.578-8.108zm-3.225 13.28l-9.572-2.366-.78-2.806 10.352 5.171z"/>
        <path fill="#E4761B" d="M81.9 89.746l-14.756-.308-.678-6.58L81.9 89.745zm-15.434-6.889l10.677-7.61 4.756 14.5-15.433-6.89z"/>
        <path stroke="#E4761B" stroke-width=".5" d="M81.9 89.746l-14.756-.308-.678-6.58L81.9 89.745zm-15.434-6.889l10.677-7.61 4.756 14.5-15.433-6.89z"/>
        <path fill="#F6851B" d="M88.335 89.526l-6.436.22-4.756-14.498 11.192 14.278zm-35.078-2.439l13.21-4.23.677 6.58-13.887-2.35z"/>
        <path stroke="#F6851B" stroke-width=".5" d="M88.335 89.526l-6.436.22-4.756-14.498 11.192 14.278zm-35.078-2.439l13.21-4.23.677 6.58-13.887-2.35z"/>
        <path fill="#CD6116" d="M90.764 94.172L90 96.283l-1.664-6.757z"/>
        <path stroke="#CD6116" stroke-width=".5" d="M90.764 94.172L90 96.283l-1.664-6.757z"/>
        <path fill="#763D16" d="M55.246 55.035l21.897 20.213-13.474-7.066z"/>
        <path stroke="#763D16" stroke-width=".5" d="M55.246 55.035l21.897 20.213-13.474-7.066z"/>
        <path fill="#E4761B" d="M46.984 102.056l18.466-.764 4.36 9.358z"/>
        <path stroke="#E4761B" stroke-width=".5" d="M46.984 102.056l18.466-.764 4.36 9.358z"/>
        <path fill="#CD6116" d="M69.81 110.351l-4.36-9.059 9.072-.44z"/>
        <path stroke="#CD6116" stroke-width=".5" d="M69.81 110.351l-4.36-9.059 9.072-.44z"/>
        <path fill="#F6851B" d="M83.71 94.241l-1.81-4.495 6.434-.22-4.624 4.715zm4.624-4.715l1.208 4.378-5.832.337 4.624-4.715zM65.45 101.292l-18.466.764 20.16-12.618-1.694 11.854zm1.694-11.854l-20.16 12.618 6.273-14.969 13.887 2.35zm22.854 6.845l4.727 2.88 2.607 6.125-7.334-9.005z"/>
        <path stroke="#F6851B" stroke-width=".5" d="M83.71 94.241l-1.81-4.495 6.434-.22-4.624 4.715zm4.624-4.715l1.208 4.378-5.832.337 4.624-4.715zM65.45 101.292l-18.466.764 20.16-12.618-1.694 11.854zm1.694-11.854l-20.16 12.618 6.273-14.969 13.887 2.35zm22.854 6.845l4.727 2.88 2.607 6.125-7.334-9.005z"/>
        <path fill="#C0AD9E" d="M74.772 112.589l-4.963-1.94 17.259 2.895z"/>
        <path stroke="#C0AD9E" stroke-width=".5" d="M74.772 112.589l-4.963-1.94 17.259 2.895z"/>
        <path fill="#763D16" d="M53.257 87.087l-2.827-3.613 1.075-1.043z"/>
        <path stroke="#763D16" stroke-width=".5" d="M53.257 87.087l-2.827-3.613 1.075-1.043z"/>
        <path fill="#D7C1B3" d="M89.027 111.399l-1.959 2.145-17.259-2.894z"/>
        <path stroke="#D7C1B3" stroke-width=".5" d="M89.027 111.399l-1.959 2.145-17.259-2.894z"/>
        <path fill="#E4761B" d="M89.954 106.14l-20.145 4.51 4.713-9.798z"/>
        <path stroke="#E4761B" stroke-width=".5" d="M89.954 106.14l-20.145 4.51 4.713-9.798z"/>
        <path fill="#D7C1B3" d="M69.81 110.65l20.144-4.51-.928 5.259z"/>
        <path stroke="#D7C1B3" stroke-width=".5" d="M69.81 110.65l20.144-4.51-.928 5.259z"/>
        <path fill="#763D16" d="M51.505 82.43l-1.958-1.982 1.325-1.352.633 3.335zm-1.414-6.14l-.662-11.296 14.24 3.188L50.09 76.29z"/>
        <path stroke="#763D16" stroke-width=".5" d="M51.505 82.43l-1.958-1.982 1.325-1.352.633 3.335zm-1.414-6.14l-.662-11.296 14.24 3.188L50.09 76.29z"/>
        <path fill="#CD6116" d="M78.6 94.745l3.3-4.999-.472 7.11z"/>
        <path stroke="#CD6116" stroke-width=".5" d="M78.6 94.745l3.3-4.999-.472 7.11z"/>
        <path fill="#CD6116" d="M81.9 89.746l-3.3 4.7-4.8.691z"/>
        <path stroke="#CD6116" stroke-width=".5" d="M81.9 89.746l-3.3 4.7-4.8.691z"/>
        <path fill="#F6851B" d="M97.332 105.288l-.899-.661L90 96.283z"/>
        <path stroke="#F6851B" stroke-width=".5" d="M97.332 105.288l-.899-.661L90 96.283z"/>
        <path fill="#CD6116" d="M73.8 95.137l-6.656-5.699 14.756.308z"/>
        <path stroke="#CD6116" stroke-width=".5" d="M73.8 95.137l-6.656-5.699 14.756.308z"/>
        <path fill="#E4751F" d="M81.428 96.856l.471-7.11 1.812 4.495z"/>
        <path stroke="#E4751F" stroke-width=".5" d="M81.428 96.856l.471-7.11 1.812 4.495z"/>
        <path fill="#763D16" d="M48.899 77.407l1.192-1.117.78 2.806z"/>
        <path stroke="#763D16" stroke-width=".5" d="M48.899 77.407l1.192-1.117.78 2.806z"/>
        <path fill="#233447" d="M81.428 96.856L73.8 95.137l4.8-.392z"/>
        <path stroke="#233447" stroke-width=".5" d="M81.428 96.856L73.8 95.137l4.8-.392z"/>
        <path fill="#763D16" d="M63.669 68.182l-14.24-3.188 5.816-9.96z"/>
        <path stroke="#763D16" stroke-width=".5" d="M63.669 68.182l-14.24-3.188 5.816-9.96z"/>
        <path fill="#C0AD9E" d="M87.068 113.544l.81 2.203-13.106-3.158z"/>
        <path stroke="#C0AD9E" stroke-width=".5" d="M87.068 113.544l.81 2.203-13.106-3.158z"/>
        <path fill="#F6851B" d="M74.522 100.852l-.722-5.715 7.628 1.72z"/>
        <path stroke="#F6851B" stroke-width=".5" d="M74.522 100.852l-.722-5.715 7.628 1.72z"/>
        <path fill="#E4751F" d="M67.144 89.438l6.656 5.7.722 5.713z"/>
        <path stroke="#E4751F" stroke-width=".5" d="M67.144 89.438l6.656 5.7.722 5.713z"/>
        <path fill="#F6851B" d="M67.144 89.438l7.378 11.413-9.072.441 1.694-11.854zm16.566 4.804l5.832-.339 6.892 10.724L83.71 94.242z"/>
        <path stroke="#F6851B" stroke-width=".5" d="M67.144 89.438l7.378 11.413-9.072.441 1.694-11.854zm16.566 4.804l5.832-.339 6.892 10.724L83.71 94.242z"/>
        <path fill="#E4751F" d="M83.71 94.241l7.246 11.003-9.528-8.388z"/>
        <path stroke="#E4751F" stroke-width=".5" d="M83.71 94.241l7.246 11.003-9.528-8.388z"/>
        <path fill="#F6851B" d="M81.428 96.856l9.528 8.388-1.002.896z"/>
        <path stroke="#F6851B" stroke-width=".5" d="M81.428 96.856l9.528 8.388-1.002.896z"/>
        <path fill="#F6851B" d="M96.434 104.627l-5.478.617L83.71 94.24l12.724 10.386zm-6.48 1.513l-15.432-5.289 6.906-3.995 8.526 9.284z"/>
        <path stroke="#F6851B" stroke-width=".5" d="M96.434 104.627l-5.478.617L83.71 94.24l12.724 10.386zm-6.48 1.513l-15.432-5.289 6.906-3.995 8.526 9.284z"/>
        <path fill="#C0AD9E" d="M87.878 115.747l-.81-2.203 1.958-2.145-1.148 4.348zm9.999-5.95l-2.356 4.716-7.643 1.234 9.999-5.95z"/>
        <path stroke="#C0AD9E" stroke-width=".5" d="M87.878 115.747l-.81-2.203 1.958-2.145-1.148 4.348zm9.999-5.95l-2.356 4.716-7.643 1.234 9.999-5.95z"/>
        <path fill="#C0AD9E" d="M87.878 115.747l2.591-4.92 7.408-1.03-10 5.95zm1.148-4.348l1.443-.573-2.591 4.921 1.148-4.348z"/>
        <path stroke="#C0AD9E" stroke-width=".5" d="M87.878 115.747l2.591-4.92 7.408-1.03-10 5.95zm1.148-4.348l1.443-.573-2.591 4.921 1.148-4.348z"/>
        <path fill="#161616" d="M96.434 104.627l1.811 1.102-5.508.66z"/>
        <path stroke="#161616" stroke-width=".5" d="M96.434 104.627l1.811 1.102-5.508.66z"/>
        <path fill="#161616" d="M92.104 107.256l6.7-.807-.927 3.349-5.773-2.542zm.633-.866l-1.781-1.146 5.478-.617-3.697 1.763z"/>
        <path stroke="#161616" stroke-width=".5" d="M92.104 107.256l6.7-.807-.927 3.349-5.773-2.542zm.633-.866l-1.781-1.146 5.478-.617-3.697 1.763z"/>
        <path fill="#161616" d="M98.245 105.729l.56.72-6.7.808 6.14-1.528zm-8.29.411l1-.896 1.782 1.146-2.783-.25zm.515 4.686l-1.443.573.927-5.259.516 4.686zm7.407-1.028l-7.407 1.028 1.634-3.57 5.773 2.542z"/>
        <path stroke="#161616" stroke-width=".5" d="M98.245 105.729l.56.72-6.7.808 6.14-1.528zm-8.29.411l1-.896 1.782 1.146-2.783-.25zm.515 4.686l-1.443.573.927-5.259.516 4.686zm7.407-1.028l-7.407 1.028 1.634-3.57 5.773 2.542z"/>
        <path fill="#161616" d="M89.954 106.14l2.15 1.117-1.635 3.569-.515-4.686zm2.15 1.117l.633-.867 5.508-.661-6.14 1.528z"/>
        <path stroke="#161616" stroke-width=".5" d="M89.954 106.14l2.15 1.117-1.635 3.569-.515-4.686zm2.15 1.117l.633-.867 5.508-.661-6.14 1.528z"/>
        <path fill="#161616" d="M92.737 106.39l-.633.867-2.15-1.117z"/>
        <path stroke="#161616" stroke-width=".5" d="M92.737 106.39l-.633.867-2.15-1.117z"/>
    </g>
</svg>
