<?xml version="1.0" encoding="UTF-8"?>
<svg width="16px" height="13px" viewBox="0 0 16 13" version="1.1" xmlns="http://www.w3.org/2000/svg" xmlns:xlink="http://www.w3.org/1999/xlink">
    <!-- Generator: Sketch 49.3 (51167) - http://www.bohemiancoding.com/sketch -->
    <title>arrow</title>
    <desc>Created with Sketch.</desc>
    <defs></defs>
    <g id="Page-1" stroke="none" stroke-width="1" fill="none" fill-rule="evenodd">
        <g id="Main_page_element" transform="translate(-1028.000000, -600.000000)" fill="#696969">
            <g id="arrow" transform="translate(1028.000000, 600.000000)">
                <g id="Group-5">
                    <g id="Layer_1" transform="translate(8.000000, 6.500000) scale(-1, -1) rotate(-89.728957) translate(-8.000000, -6.500000) translate(2.000000, -1.000000)" fill-rule="nonzero">
                        <path d="M6.64615385,14.1232734 L6.64615385,2.68804233 L10.5548308,6.57144268 C10.7406788,6.76023524 11.0143077,6.83523215 11.271296,6.76781334 C11.5282842,6.70039452 11.7289787,6.50096269 11.7967909,6.2456244 C11.8646031,5.9902861 11.7890696,5.71844001 11.5990154,5.53382716 L6.42978462,0.398024691 C6.14141549,0.111606902 5.67396912,0.111606902 5.3856,0.398024691 L0.216369231,5.53382716 C0.0776015907,5.67128379 -0.00027193814,5.85804109 2.04964503e-16,6.05272663 C6.37646871e-05,6.34942627 0.179983385,6.61688283 0.455885865,6.73041629 C0.731788345,6.84394976 1.04935809,6.78120933 1.26055385,6.57144268 L5.16923077,2.68804233 L5.16923077,14.1232734 C5.16923077,14.528477 5.49985126,14.8569594 5.90769231,14.8569594 C6.31553335,14.8569594 6.64615385,14.528477 6.64615385,14.1232734 Z" id="Shape"></path>
                    </g>
                </g>
            </g>
        </g>
    </g>
</svg>