<svg xmlns="http://www.w3.org/2000/svg" width="30" height="35" viewBox="0 0 30 35">
    <path fill="#438CEF" fill-rule="evenodd" d="M20.828 18.355c-.906 0-1.81-.24-2.63-.721l-6.683-3.92a5.137 5.137 0 0 1-2.56-4.449c-.008-1.84.929-3.5 2.506-4.443a9.605 9.605 0 0 1 5.111-1.355c5.242.1 9.475 4.44 9.435 9.678 0 .08-.002.16-.005.24a5.075 5.075 0 0 1-2.656 4.315 5.213 5.213 0 0 1-2.518.655zM16.387 0C9.228 0 3.393 5.766 3.297 12.891L0 22.357h3.296v7.054h6.396V35h15.032V23.147a13.2 13.2 0 0 0 3.348-4.179 12.915 12.915 0 0 0 1.406-5.898C29.478 5.863 23.606 0 16.387 0z"/>
</svg>
