<svg xmlns="http://www.w3.org/2000/svg" width="35" height="35" viewBox="0 0 35 35">
    <g fill="#438CEF" fill-rule="nonzero">
        <path d="M26.627 5.976c0-.821-.32-1.594-.901-2.175l-2.9-2.9A3.145 3.145 0 0 0 20.63 0h-.176v6.152h6.172v-.176z"/>
        <path d="M18.726 21.16c.196-.596.539-1.15.985-1.6l6.943-6.915V8.203H19.45c-.567 0-.992-.458-.992-1.025V0H3.077A3.08 3.08 0 0 0 0 3.076v28.848A3.08 3.08 0 0 0 3.076 35h20.475c1.696 0 3.103-1.38 3.103-3.076V24.27l-1.127 1.1a4.078 4.078 0 0 1-1.594.983l-3.26 1.088-.497.027c-.821 0-1.598-.4-2.08-1.068a2.571 2.571 0 0 1-.35-2.31l.98-2.931zM5.127 18.457h10.22a1.025 1.025 0 1 1 0 2.05H5.128a1.025 1.025 0 1 1 0-2.05zm-1.025-3.076c0-.567.458-1.026 1.025-1.026h10.22a1.025 1.025 0 1 1 0 2.051H5.128a1.025 1.025 0 0 1-1.025-1.025zm0 8.203c0-.567.458-1.025 1.025-1.025h10.22a1.025 1.025 0 1 1 0 2.05H5.128a1.025 1.025 0 0 1-1.025-1.025zm15.347 5.127a1.025 1.025 0 1 1 0 2.05h-6.152a1.025 1.025 0 1 1 0-2.05h6.152zM5.127 12.305a1.025 1.025 0 1 1 0-2.051h14.322a1.025 1.025 0 1 1 0 2.05H5.127z"/>
        <path d="M20.584 22.067l-.892 2.676c-.134.401.247.783.648.649l2.675-.894-2.431-2.431zM28.547 13.625l-6.753 6.753 2.913 2.912a123021 123021 0 0 1 6.753-6.753l-2.913-2.912zM34.397 10.683c-.36-.362-.89-.57-1.454-.57-.562 0-1.093.208-1.456.572l-1.49 1.49 2.912 2.912 1.49-1.49c.801-.803.801-2.11-.002-2.914zM34.4 13.605h.001l.009-.01a.363.363 0 0 1-.01.01zM34.407 13.6l.014-.014-.014.013zM34.417 13.588c.01-.01.01-.01 0 0z"/>
    </g>
</svg>
