<svg xmlns="http://www.w3.org/2000/svg" width="130" height="101" viewBox="0 0 130 101">
    <defs>
        <filter id="a" width="108.1%" height="110.8%" x="-4%" y="-3.5%" filterUnits="objectBoundingBox">
            <feOffset dy="2" in="SourceAlpha" result="shadowOffsetOuter1"/>
            <feGaussianBlur in="shadowOffsetOuter1" result="shadowBlurOuter1" stdDeviation="1"/>
            <feColorMatrix in="shadowBlurOuter1" result="shadowMatrixOuter1" values="0 0 0 0 0 0 0 0 0 0 0 0 0 0 0 0 0 0 0.302281476 0"/>
            <feMerge>
                <feMergeNode in="shadowMatrixOuter1"/>
                <feMergeNode in="SourceGraphic"/>
            </feMerge>
        </filter>
    </defs>
    <g fill="none" fill-rule="evenodd">
        <g filter="url(#a)" transform="translate(3 11.946)">
            <path fill="#CD6116" d="M31.952 14.382L10.235 28.729.113 44.448l9.018 8.162h19.508l32.023-7.446 11.41-17.245-1.053-11.442H59.742l-7.914-4.803z"/>
            <path stroke="#CD6116" stroke-linecap="round" stroke-linejoin="round" stroke-width=".5" d="M60.662 45.164l11.41-17.245-1.053-11.442H59.742l-7.914-4.803-19.876 2.708-21.717 14.346L.113 44.448l9.018 8.162H28.64z"/>
            <path fill="#E4761B" d="M.85 60.366l12.146 14.462L40.418 84.5h37.309l22.27-11.133 17.197-15.237H71.946L54.221 44.79l-25.582 7.82H9.131L.113 44.448z"/>
            <path stroke="#E4761B" stroke-linecap="round" stroke-linejoin="round" stroke-width=".5" d="M.113 44.448L.85 60.366l12.147 14.462L40.418 84.5h37.309l22.27-11.133 17.197-15.237H71.947L54.22 44.79l-25.582 7.82H9.131L.113 44.448"/>
            <path fill="#E4761B" d="M117.194 58.131l-2.608-7.367-43.567-9.488L54.22 44.79l3.68 8.705 8.1 3.81 12.917 8.214 6.62 4.563 14.46 3.286z"/>
            <path stroke="#E4761B" stroke-linecap="round" stroke-linejoin="round" stroke-width=".5" d="M117.194 58.131l-2.608-7.367-43.567-9.488L54.22 44.79l3.68 8.705 8.1 3.81 12.917 8.214 6.62 4.563 14.46 3.286z"/>
            <path fill="#CD6116" d="M77.727 84.501l22.27-11.133-14.46-3.286z"/>
            <path stroke="#CD6116" stroke-linecap="round" stroke-linejoin="round" stroke-width=".5" d="M77.727 84.502l7.81-14.42 14.46 3.286z"/>
            <path fill="#CD6116" d="M12.996 74.828L40.418 84.5 27.719 70.812z"/>
            <path stroke="#CD6116" stroke-linecap="round" stroke-linejoin="round" stroke-width=".5" d="M40.418 84.502l-12.699-13.69-14.723 4.016z"/>
            <path fill="#F6851B" d="M27.72 70.812l12.698 13.69h37.308l7.811-14.42z"/>
            <path stroke="#F6851B" stroke-linecap="round" stroke-linejoin="round" stroke-width=".5" d="M27.72 70.812l57.817-.73-7.81 14.42h-37.31z"/>
            <path fill="#F6851B" d="M85.537 70.082l17.522-23.21-11.535-6.129-33.622 12.752z"/>
            <path stroke="#F6851B" stroke-linecap="round" stroke-linejoin="round" stroke-width=".5" d="M85.537 70.082l17.522-23.21-11.535-6.129-33.622 12.752z"/>
            <path fill="#F6851B" d="M57.902 53.495L54.22 44.79l16.798-3.514 4.413 5.348z"/>
            <path stroke="#F6851B" stroke-linecap="round" stroke-linejoin="round" stroke-width=".5" d="M57.902 53.495L54.22 44.79l16.798-3.514 4.413 5.348z"/>
            <path fill="#F6851B" d="M27.72 70.812L54.22 44.79l-25.582 7.82z"/>
            <path stroke="#F6851B" stroke-linecap="round" stroke-linejoin="round" stroke-width=".5" d="M27.72 70.812L54.22 44.79l-25.582 7.82z"/>
            <path fill="#F6851B" d="M.85 60.366l1.896-2.092 6.385-5.664-9.018-8.162z"/>
            <path stroke="#F6851B" stroke-linecap="round" stroke-linejoin="round" stroke-width=".5" d="M2.746 58.274l6.385-5.664-9.018-8.162.736 15.918z"/>
            <path fill="#F6851B" d="M10.235 28.728L.113 44.448 31.952 14.38z"/>
            <path stroke="#F6851B" stroke-linecap="round" stroke-linejoin="round" stroke-width=".5" d="M10.235 28.728L.113 44.448l31.839-30.066z"/>
            <path fill="#E4761B" d="M31.952 14.382L.113 44.448l51.715-32.774z"/>
            <path stroke="#E4761B" stroke-linecap="round" stroke-linejoin="round" stroke-width=".5" d="M.113 44.448l51.715-32.774-19.876 2.708z"/>
            <path fill="#CD6116" d="M117.194 58.131l-2.608-7.367-15.39 3.541 8.999 11.8z"/>
            <path stroke="#CD6116" stroke-linecap="round" stroke-linejoin="round" stroke-width=".5" d="M117.194 58.131l-2.608-7.367-15.39 3.541 8.999 11.8z"/>
            <path fill="#E2761B" d="M122.92 10.68L97.407 22.274l6.14-8.712z"/>
            <path stroke="#E2761B" stroke-linecap="round" stroke-linejoin="round" stroke-width=".5" d="M122.92 10.68L97.407 22.274l6.14-8.712z"/>
            <path fill="#E4761B" d="M72.072.001l18.352 20.967-1.82-10.544z"/>
            <path stroke="#E4761B" stroke-linecap="round" stroke-linejoin="round" stroke-width=".5" d="M72.072.001l18.352 20.967-1.82-10.544z"/>
            <path fill="#E4761B" d="M106.965 46.624l-7.77 7.681 11.82 6.061 6.18-11.387z"/>
            <path stroke="#E4761B" stroke-linecap="round" stroke-linejoin="round" stroke-width=".5" d="M106.965 46.624l-7.77 7.681 11.82 6.061 6.18-11.387z"/>
            <path fill="#E4761B" d="M61.675 37.319l.972 12.89 13.283-.79-3.941-10.14z"/>
            <path stroke="#E4761B" stroke-linecap="round" stroke-linejoin="round" stroke-width=".5" d="M61.675 37.319l.972 12.89 13.283-.79-3.941-10.14z"/>
            <path fill="#E4761B" d="M80.362 25.3l-4.617 4.513 12.323 3.162 2.416-13.37z"/>
            <path stroke="#E4761B" stroke-linecap="round" stroke-linejoin="round" stroke-width=".5" d="M80.362 25.3l-4.617 4.513 12.323 3.162 2.416-13.37z"/>
            <path fill="#E4761B" d="M105 30.475L98.004 21 94.82 34.393l12.558 2.064z"/>
            <path stroke="#E4761B" stroke-linecap="round" stroke-linejoin="round" stroke-width=".5" d="M105 30.475L98.004 21 94.82 34.393l12.558 2.064z"/>
            <path fill="#E4761B" d="M75.93 49.42l8.278-2.047-5.396-6.364z"/>
            <path stroke="#E4761B" stroke-linecap="round" stroke-linejoin="round" stroke-width=".5" d="M75.93 49.42l8.278-2.047-5.396-6.364z"/>
            <path fill="#E4761B" d="M92.465 49.107l6.73 5.198.802-8.846z"/>
            <path stroke="#E4761B" stroke-linecap="round" stroke-linejoin="round" stroke-width=".5" d="M92.465 49.107l6.73 5.198.802-8.846z"/>
            <path fill="#D7C1B3" d="M99.196 54.305l-6.731-5.198-.439 4.977-.502 2.028z"/>
            <path stroke="#D7C1B3" stroke-linecap="round" stroke-linejoin="round" stroke-width=".5" d="M99.196 54.305l-6.731-5.198-.439 4.977-.502 2.028z"/>
            <path fill="#D7C1B3" d="M75.93 49.42l6.274 4.735.392-2.051 1.612-4.731z"/>
            <path stroke="#D7C1B3" stroke-linecap="round" stroke-linejoin="round" stroke-width=".5" d="M75.93 49.42l6.274 4.735.392-2.051 1.612-4.731z"/>
            <path fill="#233447" d="M94.624 40.743l3.525-.925 4.617-.276-1.27.85z"/>
            <path stroke="#233447" stroke-linecap="round" stroke-linejoin="round" stroke-width=".5" d="M94.624 40.743l3.525-.925 4.617-.276-1.27.85z"/>
            <path fill="#CD6116" d="M75.93 49.42l2.988-8.687-6.972-1.257z"/>
            <path stroke="#CD6116" stroke-linecap="round" stroke-linejoin="round" stroke-width=".5" d="M75.93 49.42l2.988-8.687-6.972-1.257z"/>
            <path fill="#CD6116" d="M100.014 45.164l-.818 9.141 7.727-7.483z"/>
            <path stroke="#CD6116" stroke-linecap="round" stroke-linejoin="round" stroke-width=".5" d="M100.014 45.164l-.818 9.141 7.727-7.483z"/>
            <path fill="#CD6116" d="M107.378 36.457L94.82 34.393l-.19 6.111 3.32-.728 5.08-.46z"/>
            <path stroke="#CD6116" stroke-linecap="round" stroke-linejoin="round" stroke-width=".5" d="M107.378 36.457L94.82 34.393l-.19 6.111 3.32-.728 5.08-.46z"/>
            <path fill="#E4751F" d="M75.744 29.813l3.069 11.197.896-5.065z"/>
            <path stroke="#E4751F" stroke-linecap="round" stroke-linejoin="round" stroke-width=".5" d="M75.744 29.813l3.069 11.197.896-5.065z"/>
            <path fill="#E4751F" d="M101.27 40.473l-1.273 4.986 7.381-9.002z"/>
            <path stroke="#E4751F" stroke-linecap="round" stroke-linejoin="round" stroke-width=".5" d="M101.27 40.473l-1.273 4.986 7.381-9.002z"/>
            <path fill="#E4751F" d="M88.068 32.975l-2.506 6.103-.137 7.793 2.437-9.787z"/>
            <path stroke="#E4751F" stroke-linecap="round" stroke-linejoin="round" stroke-width=".5" d="M88.068 32.975l-2.506 6.103-.137 7.793 2.437-9.787z"/>
            <path fill="#E4751F" d="M94.82 34.393l-1.42 3.83-1.843 9.936 3.06-7.18z"/>
            <path stroke="#E4751F" stroke-linecap="round" stroke-linejoin="round" stroke-width=".5" d="M94.82 34.393l-1.42 3.83-1.843 9.936 3.06-7.18z"/>
            <path fill="#233447" d="M79.407 35.62l-.81-1.29 4.102 2.119 2.838 2.271z"/>
            <path stroke="#233447" stroke-linecap="round" stroke-linejoin="round" stroke-width=".5" d="M79.407 35.62l-.81-1.29 4.102 2.119 2.838 2.271z"/>
            <path fill="#F6851B" d="M94.616 40.98l-3.06 7.18.909.947 7.532-3.648 1.273-4.986z"/>
            <path stroke="#F6851B" stroke-linecap="round" stroke-linejoin="round" stroke-width=".5" d="M94.616 40.98l-3.06 7.18.909.947 7.532-3.648 1.273-4.986z"/>
            <path fill="#F6851B" d="M79.698 36.006l-.886 5.004 5.396 6.363 1.217-.502.181-7.9z"/>
            <path stroke="#F6851B" stroke-linecap="round" stroke-linejoin="round" stroke-width=".5" d="M79.698 36.006l-.886 5.004 5.396 6.363 1.217-.502.181-7.9z"/>
            <path fill="#C0AD9E" d="M91.524 56.112l.502-2.028-.45-.599-8.346-1.753-.634.372-.392 2.05-6.274-4.735 2.013 2.488 4.232 4.444 8.478 1.78 5.686-2.36 2.856-1.466z"/>
            <path stroke="#C0AD9E" stroke-linecap="round" stroke-linejoin="round" stroke-width=".5" d="M91.524 56.112l.502-2.028-.45-.599-8.346-1.753-.634.372-.392 2.05-6.274-4.735 2.013 2.488 4.232 4.444 8.478 1.78 5.686-2.36 2.856-1.466z"/>
            <path fill="#161616" d="M92.465 49.107l-.908-.948-6.132-1.288-1.217.502-1.612 4.73.634-.37 8.346 1.752.45.6z"/>
            <path stroke="#161616" stroke-linecap="round" stroke-linejoin="round" stroke-width=".5" d="M92.465 49.107l-.908-.948-6.132-1.288-1.217.502-1.612 4.73.634-.37 8.346 1.752.45.6z"/>
            <path fill="#763D16" d="M120.16 28.154l3.773-8.567-1.013-8.907-24.643 11.203 6.724 8.592 10.86 5.79 3.179-2.429-.938-1.022 2.113-1.231-1.126-1.338 2.057-.967z"/>
            <path stroke="#763D16" stroke-linecap="round" stroke-linejoin="round" stroke-width=".5" d="M120.16 28.154l3.773-8.567-1.013-8.907-24.643 11.203 6.724 8.592 10.86 5.79 3.179-2.429-.938-1.022 2.113-1.231-1.126-1.338 2.057-.967z"/>
            <path fill="#763D16" d="M67.506 7.736l-.031 9.353-1.383.627 1.485 1.711-1.575.77 1.428 1.975-1.275.558 1.913 3.498 12.294-.927 9.658-5.152L72.072.001z"/>
            <path stroke="#763D16" stroke-linecap="round" stroke-linejoin="round" stroke-width=".5" d="M67.506 7.736l-.031 9.353-1.383.627 1.485 1.711-1.575.77 1.428 1.975-1.275.558 1.913 3.498 12.294-.927 9.658-5.152L72.072.001z"/>
            <path fill="#F6851B" d="M115.861 36.266l-10.86-5.79 2.377 5.981-7.38 9.002 6.925 1.362 10.271 2.158z"/>
            <path stroke="#F6851B" stroke-linecap="round" stroke-linejoin="round" stroke-width=".5" d="M115.861 36.266l-10.86-5.79 2.377 5.981-7.38 9.002 6.925 1.362 10.271 2.158z"/>
            <path fill="#F6851B" d="M80.362 25.3l-12.294.928-6.393 11.09 10.272 2.158 6.865 1.534-3.067-11.197z"/>
            <path stroke="#F6851B" stroke-linecap="round" stroke-linejoin="round" stroke-width=".5" d="M80.362 25.3l-12.294.928-6.393 11.09 10.272 2.158 6.865 1.534-3.067-11.197z"/>
            <path fill="#F6851B" d="M94.82 34.393l3.457-12.51 5.27-8.321-14.943-3.138 1.416 9.725-1.952 12.826-.565 4.056-2.078 9.84 6.132 1.288 2.122-9.83z"/>
            <path stroke="#F6851B" stroke-linecap="round" stroke-linejoin="round" stroke-width=".5" d="M94.82 34.393l3.457-12.51 5.27-8.321-14.943-3.138 1.416 9.725-1.952 12.826-.565 4.056-2.078 9.84 6.132 1.288 2.122-9.83z"/>
            <path fill="#CD6116" d="M78.441 34.025l4.457 2.464 2.747 2.075 2.314-5.737-12.323-3.162z"/>
            <path stroke="#CD6116" stroke-linecap="round" stroke-linejoin="round" stroke-width=".5" d="M78.441 34.025l4.457 2.464 2.747 2.075 2.314-5.737-12.323-3.162z"/>
        </g>
        <path fill="#438CEF" d="M107.63 20.948a.635.635 0 0 1-.379-.143.425.425 0 0 1-.16-.347c0-.084.014-.149.045-.194a.526.526 0 0 0 .069-.149 17.45 17.45 0 0 1 1.766-2.412 65.132 65.132 0 0 1 2.052-2.253c-.13 0-.25.002-.361.006a9.713 9.713 0 0 1-.351.006 50.539 50.539 0 0 1-1.645.022h-.489c-.165 0-.328-.003-.489-.01-.2-.031-.345-.092-.437-.184a.436.436 0 0 1-.138-.32c0-.12.05-.233.15-.335.099-.103.26-.158.483-.166.521.023 1.027.032 1.518.029.49-.004.981-.014 1.472-.029a70.43 70.43 0 0 1 1.749-.023c.314.084.47.248.47.49a.59.59 0 0 1-.149.377c-.606.472-1.16.99-1.662 1.557a45.618 45.618 0 0 0-1.466 1.74c-.223.266-.408.492-.558.678-.15.187-.29.371-.42.554h.127c.176 0 .356.004.54.011l.54.023c.369.023.74.034 1.116.034.261 0 .52-.011.777-.034.257-.023.527-.069.811-.137.207 0 .366.05.477.148.111.1.167.213.167.343a.428.428 0 0 1-.075.24.8.8 0 0 1-.27.227 6.738 6.738 0 0 1-.53.137 4.215 4.215 0 0 1-.528.08 5.08 5.08 0 0 1-.926.029c-.303-.02-.604-.037-.903-.052a14.642 14.642 0 0 0-1.15-.046c-.192 0-.385.008-.581.024a5.364 5.364 0 0 0-.592.08h-.07z"/>
        <path stroke="#438CEF" stroke-width=".72" d="M107.63 20.948a.635.635 0 0 1-.379-.143.425.425 0 0 1-.16-.347c0-.084.014-.149.045-.194a.526.526 0 0 0 .069-.149 17.45 17.45 0 0 1 1.766-2.412 65.132 65.132 0 0 1 2.052-2.253c-.13 0-.25.002-.361.006a9.713 9.713 0 0 1-.351.006 50.539 50.539 0 0 1-1.645.022h-.489c-.165 0-.328-.003-.489-.01-.2-.031-.345-.092-.437-.184a.436.436 0 0 1-.138-.32c0-.12.05-.233.15-.335.099-.103.26-.158.483-.166.521.023 1.027.032 1.518.029.49-.004.981-.014 1.472-.029a70.43 70.43 0 0 1 1.749-.023c.314.084.47.248.47.49a.59.59 0 0 1-.149.377c-.606.472-1.16.99-1.662 1.557a45.618 45.618 0 0 0-1.466 1.74c-.223.266-.408.492-.558.678-.15.187-.29.371-.42.554h.127c.176 0 .356.004.54.011l.54.023c.369.023.74.034 1.116.034.261 0 .52-.011.777-.034.257-.023.527-.069.811-.137.207 0 .366.05.477.148.111.1.167.213.167.343a.428.428 0 0 1-.075.24.8.8 0 0 1-.27.227 6.738 6.738 0 0 1-.53.137 4.215 4.215 0 0 1-.528.08 5.08 5.08 0 0 1-.926.029c-.303-.02-.604-.037-.903-.052a14.642 14.642 0 0 0-1.15-.046c-.192 0-.385.008-.581.024a5.364 5.364 0 0 0-.592.08h-.07z"/>
        <path fill="#438CEF" d="M118.218 11.923a.431.431 0 0 1-.274.003.29.29 0 0 1-.187-.178.231.231 0 0 1-.02-.133.35.35 0 0 0 .006-.11c.11-.649.278-1.297.506-1.945.228-.649.47-1.287.726-1.916a6.906 6.906 0 0 0-.226.092c-.069.03-.142.06-.219.09a34.6 34.6 0 0 1-1.025.417l-.307.12c-.103.04-.206.078-.309.113a.525.525 0 0 1-.32-.007.296.296 0 0 1-.166-.167.32.32 0 0 1 .01-.247c.037-.089.124-.163.262-.222.332-.114.652-.232.959-.355.307-.122.612-.249.916-.378a44.502 44.502 0 0 1 1.09-.443c.218-.025.358.039.418.191a.4.4 0 0 1 0 .273c-.262.444-.48.906-.654 1.384-.173.478-.335.961-.485 1.45-.074.221-.134.409-.181.562a8.3 8.3 0 0 0-.125.45l.079-.031c.11-.043.224-.085.341-.126l.345-.118c.237-.076.473-.16.708-.252a5.92 5.92 0 0 0 .478-.212c.156-.077.314-.172.474-.284.13-.05.243-.059.337-.024a.304.304 0 0 1 .19.173c.02.053.024.11.013.169a.538.538 0 0 1-.113.21 4.675 4.675 0 0 1-.298.215 2.83 2.83 0 0 1-.312.18 3.42 3.42 0 0 1-.573.244c-.195.063-.388.126-.579.19a9.928 9.928 0 0 0-.732.253c-.12.047-.24.1-.359.157a3.653 3.653 0 0 0-.351.195l-.043.017z"/>
        <path stroke="#438CEF" stroke-width=".72" d="M118.218 11.923a.431.431 0 0 1-.274.003.29.29 0 0 1-.187-.178.231.231 0 0 1-.02-.133.35.35 0 0 0 .006-.11c.11-.649.278-1.297.506-1.945.228-.649.47-1.287.726-1.916a6.906 6.906 0 0 0-.226.092c-.069.03-.142.06-.219.09a34.6 34.6 0 0 1-1.025.417l-.307.12c-.103.04-.206.078-.309.113a.525.525 0 0 1-.32-.007.296.296 0 0 1-.166-.167.32.32 0 0 1 .01-.247c.037-.089.124-.163.262-.222.332-.114.652-.232.959-.355.307-.122.612-.249.916-.378a44.502 44.502 0 0 1 1.09-.443c.218-.025.358.039.418.191a.4.4 0 0 1 0 .273c-.262.444-.48.906-.654 1.384-.173.478-.335.961-.485 1.45-.074.221-.134.409-.181.562a8.3 8.3 0 0 0-.125.45l.079-.031c.11-.043.224-.085.341-.126l.345-.118c.237-.076.473-.16.708-.252a5.92 5.92 0 0 0 .478-.212c.156-.077.314-.172.474-.284.13-.05.243-.059.337-.024a.304.304 0 0 1 .19.173c.02.053.024.11.013.169a.538.538 0 0 1-.113.21 4.675 4.675 0 0 1-.298.215 2.83 2.83 0 0 1-.312.18 3.42 3.42 0 0 1-.573.244c-.195.063-.388.126-.579.19a9.928 9.928 0 0 0-.732.253c-.12.047-.24.1-.359.157a3.653 3.653 0 0 0-.351.195l-.043.017z"/>
        <path fill="#438CEF" d="M111.448 5.335a.43.43 0 0 1-.256-.098.287.287 0 0 1-.106-.235c0-.057.011-.1.032-.13a.355.355 0 0 0 .047-.1c.346-.561.747-1.1 1.203-1.616.457-.517.922-1.02 1.396-1.507-.087-.001-.17 0-.244.001a6.264 6.264 0 0 1-.236.002 31.16 31.16 0 0 1-1.109.007l-.329-.003c-.111 0-.221-.004-.33-.01a.52.52 0 0 1-.293-.126.294.294 0 0 1-.091-.216.32.32 0 0 1 .103-.226c.067-.068.176-.104.326-.109.351.019.692.028 1.023.028.33 0 .661-.003.992-.011a46.835 46.835 0 0 1 1.178-.006c.212.058.317.17.316.333a.398.398 0 0 1-.103.253 8.309 8.309 0 0 0-1.13 1.04c-.34.38-.673.767-.997 1.164-.151.179-.278.33-.38.455a8.355 8.355 0 0 0-.286.37l.086.001c.118 0 .24.005.364.01l.364.019c.248.017.498.027.751.03.176 0 .35-.006.524-.02.173-.014.356-.043.547-.088.14.001.247.036.32.103a.302.302 0 0 1 .112.231c0 .057-.019.11-.052.161a.542.542 0 0 1-.184.153c-.12.035-.238.064-.357.09a2.788 2.788 0 0 1-.357.05c-.212.024-.42.029-.624.014a53.793 53.793 0 0 0-.608-.04 9.879 9.879 0 0 0-.775-.036 5.11 5.11 0 0 0-.391.012c-.132.01-.265.026-.4.05h-.046z"/>
        <path stroke="#438CEF" stroke-width=".72" d="M111.448 5.335a.43.43 0 0 1-.256-.098.287.287 0 0 1-.106-.235c0-.057.011-.1.032-.13a.355.355 0 0 0 .047-.1c.346-.561.747-1.1 1.203-1.616.457-.517.922-1.02 1.396-1.507-.087-.001-.17 0-.244.001a6.264 6.264 0 0 1-.236.002 31.16 31.16 0 0 1-1.109.007l-.329-.003c-.111 0-.221-.004-.33-.01a.52.52 0 0 1-.293-.126.294.294 0 0 1-.091-.216.32.32 0 0 1 .103-.226c.067-.068.176-.104.326-.109.351.019.692.028 1.023.028.33 0 .661-.003.992-.011a46.835 46.835 0 0 1 1.178-.006c.212.058.317.17.316.333a.398.398 0 0 1-.103.253 8.309 8.309 0 0 0-1.13 1.04c-.34.38-.673.767-.997 1.164-.151.179-.278.33-.38.455a8.355 8.355 0 0 0-.286.37l.086.001c.118 0 .24.005.364.01l.364.019c.248.017.498.027.751.03.176 0 .35-.006.524-.02.173-.014.356-.043.547-.088.14.001.247.036.32.103a.302.302 0 0 1 .112.231c0 .057-.019.11-.052.161a.542.542 0 0 1-.184.153c-.12.035-.238.064-.357.09a2.788 2.788 0 0 1-.357.05c-.212.024-.42.029-.624.014a53.793 53.793 0 0 0-.608-.04 9.879 9.879 0 0 0-.775-.036 5.11 5.11 0 0 0-.391.012c-.132.01-.265.026-.4.05h-.046z"/>
    </g>
</svg>
