<svg xmlns="http://www.w3.org/2000/svg" width="94" height="96" viewBox="0 0 94 96">
    <defs>
        <filter id="a" width="128.4%" height="127.4%" x="-14.8%" y="-11.9%" filterUnits="objectBoundingBox">
            <feOffset dy="2" in="SourceAlpha" result="shadowOffsetOuter1"/>
            <feGaussianBlur in="shadowOffsetOuter1" result="shadowBlurOuter1" stdDeviation="3"/>
            <feColorMatrix in="shadowBlurOuter1" result="shadowMatrixOuter1" values="0 0 0 0 0 0 0 0 0 0 0 0 0 0 0 0 0 0 0.5 0"/>
            <feMerge>
                <feMergeNode in="shadowMatrixOuter1"/>
                <feMergeNode in="SourceGraphic"/>
            </feMerge>
        </filter>
    </defs>
    <g fill="none" fill-rule="nonzero" stroke-width=".5" filter="url(#a)" transform="translate(6 4)">
        <path fill="#E4761B" stroke="#E4761B" d="M76.76 58.118l-4.905 16.54-9.628-2.626zM62.227 72.032l9.286-12.69 5.246-1.224z"/>
        <path fill="#F6851B" stroke="#F6851B" d="M69.543 45.649l7.216 12.47-5.246 1.222-1.97-13.692zm0 0l4.643-3.208 2.573 15.677-7.216-12.47z"/>
        <path fill="#763D16" stroke="#763D16" d="M63.634 36.226l13.346-5.453-.663 2.987-12.683 2.466zm12.26 1.123l-12.26-1.123 12.683-2.466-.422 3.589z"/>
        <path fill="#763D16" stroke="#763D16" d="M75.895 37.349l-1.709 5.092-10.552-6.215 12.26 1.123zm2.673-5.313l-2.251 1.724.663-2.987 1.588 1.263zm-2.673 5.313l.422-3.589 1.789 1.484-2.211 2.105z"/>
        <path fill="#E2761B" stroke="#E2761B" d="M51.876 68.002l3.337 1.062 7.014 2.968z"/>
        <path fill="#763D16" stroke="#763D16" d="M74.186 42.441l1.709-5.092 1.467 1.123-3.176 3.97zm0 0l-13.848-4.55 3.296-1.665 10.552 6.215zM66.93 20.61l-3.296 15.616-3.296 1.664z"/>
        <path fill="#763D16" stroke="#763D16" d="M76.98 30.773l-13.346 5.453 3.297-15.617z"/>
        <path fill="#763D16" stroke="#763D16" d="M66.93 20.61l13.93-1.605-3.88 11.768z"/>
        <path fill="#F6851B" stroke="#F6851B" d="M74.186 42.441l-4.643 3.208-9.205-7.759z"/>
        <path fill="#763D16" stroke="#763D16" d="M80.256 7.758l.603 11.247-13.928 1.604z"/>
        <path fill="#E2761B" stroke="#E2761B" d="M80.256 7.758L52.42 27.947l-.362-13.693z"/>
        <path fill="#F6851B" stroke="#F6851B" d="M31.355 12.61l20.702 1.644.362 13.693z"/>
        <path fill="#763D16" stroke="#763D16" d="M60.338 37.89l-7.92-9.943 14.513-7.338z"/>
        <path fill="#E4761B" stroke="#E4761B" d="M60.338 37.89l9.205 7.759-12.923 1.423zM56.62 47.072l-4.201-19.125 7.919 9.943z"/>
        <path fill="#763D16" stroke="#763D16" d="M66.93 20.61L52.42 27.946 80.256 7.758z"/>
        <path fill="#C0AD9E" stroke="#C0AD9E" d="M31.536 71.71l6.572 6.837-8.944-8.12z"/>
        <path fill="#CD6116" stroke="#CD6116" d="M62.227 72.032l3.116-11.809 6.17-.882z"/>
        <path fill="#E2761B" stroke="#E2761B" d="M4.884 38.812L16.26 26.884 6.351 37.389z"/>
        <path fill="#F6851B" stroke="#F6851B" d="M71.513 59.341l-6.17.882 4.2-14.574 1.97 13.692zM52.42 27.947l-11.075-.361-9.99-14.976L52.42 27.947z"/>
        <path fill="#E4751F" stroke="#E4751F" d="M69.543 45.649l-4.2 14.574L65 53.106z"/>
        <path fill="#CD6116" stroke="#CD6116" d="M56.62 47.072l12.923-1.423-4.542 7.457z"/>
        <path fill="#F6851B" stroke="#F6851B" d="M41.344 27.586l11.075.36 4.2 19.126z"/>
        <path fill="#E4761B" stroke="#E4761B" d="M41.344 27.586L11.457 0l19.898 12.61 9.99 14.976zM31.334 75.9L5.368 83.92.18 64.173 31.335 75.9z"/>
        <path fill="#763D16" stroke="#763D16" d="M8.743 43.744l9.809-7.678 8.22 1.904z"/>
        <path fill="#763D16" stroke="#763D16" d="M26.772 37.97l-8.22-1.904 4.401-18.123zM6.351 37.389l12.2-1.323-9.808 7.678z"/>
        <path fill="#CD6116" stroke="#CD6116" d="M65.001 53.106l-5.065-2.546-3.316-3.488z"/>
        <path fill="#763D16" stroke="#763D16" d="M6.351 37.389l-.864-4.55 13.065 3.227z"/>
        <path fill="#233447" stroke="#233447" d="M58.89 56.294l1.046-5.734 5.065 2.546z"/>
        <path fill="#F6851B" stroke="#F6851B" d="M65.343 60.223l-6.452-3.929L65 53.106z"/>
        <path fill="#763D16" stroke="#763D16" d="M18.552 36.066L5.487 32.838 4.422 29.01l14.13 7.057zm4.401-18.123l-4.401 18.123-14.13-7.057 18.531-11.066zm0 0l18.391 9.643L26.772 37.97l-3.819-20.027z"/>
        <path fill="#E4761B" stroke="#E4761B" d="M26.772 37.97l14.572-10.384 6.492 19.787-21.064-9.403zm21.064 9.403l-20.14-.421-.924-8.982 21.064 9.403z"/>
        <path fill="#F6851B" stroke="#F6851B" d="M8.743 43.744l18.03-5.774.924 8.982-18.954-3.208zm47.877 3.328l-8.784.3-6.492-19.786L56.62 47.072z"/>
        <path fill="#CD6116" stroke="#CD6116" d="M59.936 50.56l-1.045 5.734-2.271-9.222z"/>
        <path fill="#763D16" stroke="#763D16" d="M11.457 0l29.887 27.586-18.39-9.643z"/>
        <path fill="#E4761B" stroke="#E4761B" d="M.18 64.173l25.205-1.043 5.95 12.77z"/>
        <path fill="#CD6116" stroke="#CD6116" d="M31.335 75.9l-5.95-12.77 12.382-.601z"/>
        <path fill="#F6851B" stroke="#F6851B" d="M58.89 56.294l6.453 3.93 3.557 8.36-10.01-12.29zm-31.193-9.342L.18 64.172l8.562-20.428 18.954 3.208zM25.385 63.13L.181 64.173l27.516-17.221-2.312 16.178zM56.62 47.072l1.648 5.974-7.96.461 6.312-6.435zm-6.312 6.435l-2.472-6.134 8.784-.3-6.312 6.434z"/>
        <path fill="#C0AD9E" stroke="#C0AD9E" d="M38.108 78.547l-6.773-2.646 23.556 3.95z"/>
        <path fill="#763D16" stroke="#763D16" d="M8.743 43.744l-3.859-4.932 1.467-1.423z"/>
        <path fill="#D7C1B3" stroke="#D7C1B3" d="M57.564 76.923l-2.673 2.927-23.556-3.95z"/>
        <path fill="#E4761B" stroke="#E4761B" d="M58.83 69.746l-27.495 6.155 6.432-13.372z"/>
        <path fill="#D7C1B3" stroke="#D7C1B3" d="M31.335 75.9l27.496-6.154-1.267 7.177z"/>
        <path fill="#763D16" stroke="#763D16" d="M4.422 29.01l-.905-15.418 19.436 4.35L4.422 29.01zm1.93 8.379l-2.674-2.706 1.81-1.845.863 4.551z"/>
        <path fill="#CD6116" stroke="#CD6116" d="M43.334 51.342l4.502-3.97-.643 9.704z"/>
        <path fill="#CD6116" stroke="#CD6116" d="M47.836 47.373l-4.502 3.97-6.552 3.387z"/>
        <path fill="#F6851B" stroke="#F6851B" d="M68.9 68.583l-1.226-.902-8.783-11.387z"/>
        <path fill="#CD6116" stroke="#CD6116" d="M36.782 54.73l-9.085-7.778 20.14.42z"/>
        <path fill="#E4751F" stroke="#E4751F" d="M47.193 57.076l.643-9.703 2.472 6.134z"/>
        <path fill="#763D16" stroke="#763D16" d="M2.794 30.533l1.628-1.524 1.065 3.83z"/>
        <path fill="#233447" stroke="#233447" d="M47.193 57.076L36.782 54.73l6.552-3.388z"/>
        <path fill="#763D16" stroke="#763D16" d="M22.953 17.943l-19.436-4.35L11.457 0z"/>
        <path fill="#C0AD9E" stroke="#C0AD9E" d="M54.891 79.85l1.106 3.007-17.889-4.31z"/>
        <path fill="#F6851B" stroke="#F6851B" d="M37.767 62.529l-.985-7.799 10.411 2.346z"/>
        <path fill="#E4751F" stroke="#E4751F" d="M27.697 46.952l9.085 7.778.985 7.799z"/>
        <path fill="#F6851B" stroke="#F6851B" d="M50.308 53.507l7.96-.46 9.406 14.634-17.366-14.174zm-22.611-6.555l10.07 15.577-12.382.601 2.312-16.178z"/>
        <path fill="#E4751F" stroke="#E4751F" d="M50.308 53.507l9.89 15.016-13.005-11.447z"/>
        <path fill="#F6851B" stroke="#F6851B" d="M47.193 57.076l13.004 11.447-1.366 1.223z"/>
        <path fill="#F6851B" stroke="#F6851B" d="M58.83 69.746L37.768 62.53l9.426-5.453 11.638 12.67zm8.844-2.065l-7.477.842-9.889-15.016 17.366 14.174z"/>
        <path fill="#C0AD9E" stroke="#C0AD9E" d="M69.644 74.738l-3.216 6.435-10.431 1.684 13.647-8.12zm-13.647 8.12L54.89 79.85l2.673-2.927-1.567 5.934z"/>
        <path fill="#C0AD9E" stroke="#C0AD9E" d="M57.564 76.923l1.97-.782-3.537 6.716 1.567-5.934zm-1.567 5.934l3.537-6.716 10.11-1.403-13.647 8.12z"/>
        <path fill="#161616" stroke="#161616" d="M67.674 67.681l2.472 1.504-7.517.902z"/>
        <path fill="#161616" stroke="#161616" d="M62.63 70.087l-2.433-1.564 7.477-.842-5.045 2.406zm-.865 1.183l9.145-1.103-1.266 4.57-7.879-3.467z"/>
        <path fill="#161616" stroke="#161616" d="M69.644 74.738l-10.11 1.403 2.231-4.871 7.879 3.468zm-10.11 1.403l-1.97.782 1.267-7.177.703 6.395zm-.703-6.395l1.366-1.223 2.432 1.564-3.798-.34zm11.315-.561l.764.982-9.145 1.103 8.381-2.085z"/>
        <path fill="#161616" stroke="#161616" d="M61.765 71.27l.864-1.183 7.517-.902-8.381 2.085zm-2.934-1.524l2.934 1.524-2.231 4.871-.703-6.395z"/>
        <path fill="#161616" stroke="#161616" d="M62.63 70.087l-.865 1.183-2.934-1.524z"/>
    </g>
</svg>
