<svg xmlns="http://www.w3.org/2000/svg" xmlns:xlink="http://www.w3.org/1999/xlink" width="30" height="30" viewBox="0 0 30 30">
    <defs>
        <path id="a" d="M0 0h30v30H0z"/>
    </defs>
    <g fill="none" fill-rule="evenodd">
        <mask id="b" fill="#fff">
            <use xlink:href="#a"/>
        </mask>
        <path fill="#438CEF" d="M15 0C6.716 0 0 6.716 0 15c0 8.284 6.716 15 15 15 8.284 0 15-6.716 15-15 0-8.284-6.716-15-15-15zm9.363 24.363a13.056 13.056 0 0 1-5.371 3.25v-2.338c0-1.229-.422-2.132-1.264-2.711.528-.05 1.012-.122 1.454-.213.442-.092.909-.224 1.402-.396a6.947 6.947 0 0 0 1.325-.617 5.53 5.53 0 0 0 1.127-.93c.36-.38.663-.812.906-1.294.244-.483.437-1.062.58-1.737.141-.675.213-1.419.213-2.232 0-1.573-.513-2.914-1.54-4.02.468-1.22.417-2.545-.151-3.977l-.381-.045c-.264-.03-.739.081-1.425.335-.685.254-1.454.67-2.307 1.25a14.004 14.004 0 0 0-3.763-.504c-1.31 0-2.559.168-3.747.503a13.017 13.017 0 0 0-1.53-.906c-.483-.239-.869-.401-1.158-.488a3.971 3.971 0 0 0-.808-.16 2.872 2.872 0 0 0-.48-.015.982.982 0 0 0-.152.03c-.569 1.442-.62 2.768-.152 3.976-1.026 1.107-1.539 2.448-1.539 4.021 0 .813.071 1.557.214 2.232.142.675.335 1.254.579 1.737.243.482.545.914.906 1.294.36.381.736.691 1.127.93.39.238.833.444 1.325.617.493.172.96.304 1.402.396a13.7 13.7 0 0 0 1.454.213c-.833.569-1.249 1.472-1.249 2.711v2.383a13.06 13.06 0 0 1-5.524-3.295A13.065 13.065 0 0 1 2 15.1a13.062 13.062 0 0 1 3.837-9.263A13.062 13.062 0 0 1 15.1 2a13.056 13.056 0 0 1 9.263 3.837A13.06 13.06 0 0 1 28.2 15.1a13.053 13.053 0 0 1-3.837 9.263z" mask="url(#b)"/>
    </g>
</svg>
