<svg xmlns="http://www.w3.org/2000/svg" width="37" height="35" viewBox="0 0 37 35">
    <g fill="#438CEF" fill-rule="evenodd">
        <path d="M18.382 0c.683 0 1.236.56 1.236 1.25s-.553 1.25-1.236 1.25c-.682 0-1.235-.56-1.235-1.25S17.7 0 18.382 0M29.294 14.792c.682 0 1.235-.56 1.235-1.25s-.553-1.25-1.235-1.25-1.235.56-1.235 1.25a1.252 1.252 0 0 0 1.235 1.25M22.088 20.208c.682 0 1.236.56 1.236 1.25s-.554 1.25-1.236 1.25c-.682 0-1.235-.56-1.235-1.25s.553-1.25 1.235-1.25M13.072 13.322l-.36 2.095 1.894-.995a.592.592 0 0 1 .552 0l1.894.995-.36-2.095a.614.614 0 0 1 .176-.543l1.514-1.475-2.1-.305a.602.602 0 0 1-.453-.33l-.947-1.919-.947 1.919a.601.601 0 0 1-.452.33l-2.1.305 1.513 1.475c.144.14.21.344.176.543"/>
        <path d="M7.59 19.086c.341 0 .678.075.988.218l2.823-3.565.38-2.206-2.189-2.126a.616.616 0 0 1-.157-.628.607.607 0 0 1 .49-.418l3.033-.44 1.354-2.734a.63.63 0 0 1 1.083 0l1.354 2.734 3.033.44c.229.033.42.195.49.418.071.222.01.467-.157.629l-2.189 2.125.38 2.206 2.823 3.565a2.324 2.324 0 0 1 2.125.082l4.098-4.487a2.505 2.505 0 0 1 .47-3.256 2.44 2.44 0 0 1 3.255.068 2.506 2.506 0 0 1 .337 3.273 2.443 2.443 0 0 1-3.172.744l-4.094 4.482a2.468 2.468 0 0 1-.48 3.224 2.404 2.404 0 0 1-3.223-.113 2.469 2.469 0 0 1-.258-3.249l-2.246-2.837a.483.483 0 0 1-.373-.053l-2.714-1.422-2.715 1.422a.593.593 0 0 1-.374.055L9.52 20.072c.316.42.488.933.49 1.461 0 1.352-1.084 2.448-2.42 2.448-1.338 0-2.422-1.096-2.422-2.448 0-1.351 1.084-2.447 2.421-2.447zm-4.237 3.671c.002 1.689 1.356 3.057 3.026 3.06H17.88v6.9a1.23 1.23 0 0 0-.564 1.376c.142.535.621.907 1.17.907.547 0 1.027-.372 1.169-.907a1.23 1.23 0 0 0-.564-1.376v-6.9h11.5c1.67-.003 3.025-1.371 3.027-3.06V5.625H3.353v17.132z"/>
        <path d="M7.677 20.208c.682 0 1.235.56 1.235 1.25s-.553 1.25-1.235 1.25c-.683 0-1.236-.56-1.236-1.25s.553-1.25 1.236-1.25M34.864 2.5H2.107a.617.617 0 0 0-.607.625v.625c0 .345.272.625.607.625h32.757c.335 0 .606-.28.607-.625v-.625a.617.617 0 0 0-.607-.625"/>
    </g>
</svg>
