<svg xmlns="http://www.w3.org/2000/svg" xmlns:xlink="http://www.w3.org/1999/xlink" width="38" height="33" viewBox="0 0 38 33">
    <defs>
        <path id="a" d="M.004.003h31.257V32.94H.004z"/>
    </defs>
    <g fill="none" fill-rule="evenodd">
        <g transform="translate(1.5)">
            <mask id="b" fill="#fff">
                <use xlink:href="#a"/>
            </mask>
            <path fill="#438CEF" d="M3.28 13.232a1.18 1.18 0 0 1-1.187-1.172A1.18 1.18 0 0 1 3.28 10.89a1.18 1.18 0 0 1 1.186 1.171 1.18 1.18 0 0 1-1.186 1.172zM4.326 4.41h4.606V2.067H4.326v2.344zm23.655 24.12a1.18 1.18 0 0 1 1.186 1.171 1.18 1.18 0 0 1-1.186 1.172 1.18 1.18 0 0 1-1.186-1.172 1.18 1.18 0 0 1 1.186-1.171zM5.512 19.847C2.472 19.847 0 22.29 0 25.292c0 3.002 2.473 5.444 5.512 5.444h19.362a3.281 3.281 0 0 0 3.107 2.205c1.808 0 3.28-1.453 3.28-3.239 0-1.786-1.472-3.239-3.28-3.239-1.442 0-2.67.925-3.107 2.205H5.512c-1.885 0-3.419-1.514-3.419-3.376 0-1.862 1.534-3.377 3.42-3.377h6.698c3.04 0 5.513-2.442 5.513-5.444s-2.473-5.445-5.513-5.445H6.387a3.274 3.274 0 0 0-2.06-2.035V6.478h5.651a1.04 1.04 0 0 0 1.047-1.034v-4.41A1.04 1.04 0 0 0 9.978 0H3.28a1.04 1.04 0 0 0-1.047 1.034V8.99C.936 9.424 0 10.636 0 12.061c0 1.785 1.471 3.238 3.28 3.238 1.442 0 2.669-.925 3.107-2.205h5.824c1.886 0 3.42 1.515 3.42 3.377 0 1.862-1.534 3.376-3.42 3.376H5.512z" mask="url(#b)"/>
        </g>
        <path fill="#438CEF" d="M28.951 2.059c4.163 0 7.549 3.546 7.549 7.905 0 2.354-.98 4.547-2.695 6.054l-3.945 8.105a1.016 1.016 0 0 1-.909.583c-.384 0-.735-.225-.909-.583l-3.945-8.105c-1.716-1.507-2.695-3.7-2.695-6.054 0-4.359 3.386-7.905 7.549-7.905z"/>
        <path fill="#FFF" d="M29.294 10.382a1.118 1.118 0 0 1-1.117-1.117c0-.616.501-1.117 1.117-1.117s1.117.5 1.117 1.117c0 .616-.5 1.117-1.117 1.117zm0-4.206a3.092 3.092 0 0 0-3.088 3.089 3.092 3.092 0 0 0 3.088 3.088 3.092 3.092 0 0 0 3.088-3.088 3.092 3.092 0 0 0-3.088-3.089z"/>
    </g>
</svg>
