<svg xmlns="http://www.w3.org/2000/svg" xmlns:xlink="http://www.w3.org/1999/xlink" width="35" height="35" viewBox="0 0 35 35">
    <defs>
        <path id="a" d="M.004 0H35v35H.004z"/>
    </defs>
    <g fill="none" fill-rule="evenodd">
        <g>
            <mask id="b" fill="#fff">
                <use xlink:href="#a"/>
            </mask>
            <path fill="#438CEF" d="M9.8 14.7c-1.4-1.4-1.4-3.5 0-4.9 1.4-1.4 3.5-1.4 4.9 0 1.4 1.4 1.4 3.5 0 4.9-1.4 1.4-3.5 1.4-4.9 0zm18.025 3.325c-.35-.875-.875-1.75-1.4-2.45 2.625-.7 5.25-.525 7.525.35-1.925-5.075-7-7.7-12.6-6.65C15.925 3.85 8.4.175.875 0 .35 0 0 .35 0 .875.175 8.4 3.85 15.925 9.1 21.35c-.875 5.425 1.575 10.675 6.65 12.6-.875-2.275-1.05-4.9-.35-7.525.875.525 1.75 1.05 2.625 1.4.35.175.7.175 1.05-.175l8.75-8.75c.175-.175.175-.525 0-.875zM34.475 25.2L30.8 21.525c-.7-.7-1.75-.7-2.45 0-.7.7-.7 1.75 0 2.45l3.675 3.675c.7.7 1.75.7 2.45 0 .7-.7.7-1.75 0-2.45M23.975 28.35c-.7-.7-1.75-.7-2.45 0-.7.7-.7 1.75 0 2.45l3.675 3.675c.7.7 1.75.7 2.45 0 .7-.7.7-1.75 0-2.45l-3.675-3.675" mask="url(#b)"/>
        </g>
        <path fill="#438CEF" d="M27.3 25.025c-.7-.7-1.75-.7-2.45 0-.7.7-.7 1.75 0 2.45l5.075 5.075c.7.7 1.75.7 2.45 0 .7-.7.7-1.75 0-2.45L27.3 25.025"/>
    </g>
</svg>
