<svg xmlns="http://www.w3.org/2000/svg" xmlns:xlink="http://www.w3.org/1999/xlink" width="1200" height="1827" viewBox="0 0 1200 1827">
    <defs>
        <path id="a" d="M0 0h1200v1828.46H0z"/>
        <path id="c" d="M0 .69h1827.31v1828.77H0z"/>
    </defs>
    <g fill="none" fill-rule="evenodd" transform="translate(0 -1.778)">
        <mask id="b" fill="#fff">
            <use xlink:href="#a"/>
        </mask>
        <g mask="url(#b)">
            <g transform="translate(-314 2)">
                <mask id="d" fill="#fff">
                    <use xlink:href="#c"/>
                </mask>
                <path fill="#37404A" d="M913.656 1774.822c-467.533 0-859.061-391.843-859.061-859.747 0-467.905 391.528-859.747 859.06-859.747 467.532 0 859.06 391.842 859.06 859.747 0 467.904-391.528 859.747-859.06 859.747m0-1774.132C409.059.69 0 410.074 0 915.075c0 505 409.058 914.385 913.656 914.385 504.598 0 913.655-409.384 913.655-914.385S1418.254.69 913.656.69" mask="url(#d)"/>
            </g>
            <path fill="#37404A" d="M599.984 1350.775c-239.293 0-433.279-194.068-433.279-433.463 0-239.396 193.986-433.463 433.279-433.463 239.292 0 433.277 194.067 433.277 433.463 0 239.395-193.985 433.463-433.277 433.463m0-985.683C295.13 365.092 48 612.329 48 917.312c0 304.983 247.131 552.22 551.984 552.22 304.851 0 551.982-247.237 551.982-552.22 0-304.983-247.13-552.22-551.982-552.22"/>
        </g>
    </g>
</svg>
