<svg xmlns="http://www.w3.org/2000/svg" xmlns:xlink="http://www.w3.org/1999/xlink" width="537" height="400" viewBox="0 0 537 400">
    <defs>
        <path id="a" d="M0 0h537v399.69H0z"/>
        <linearGradient id="c" x1="50%" x2="50%" y1="93.86%" y2="29.005%">
            <stop offset="0%" stop-color="#C0E4E3" stop-opacity="0"/>
            <stop offset="100%" stop-color="#729295"/>
        </linearGradient>
        <linearGradient id="d" x1="50%" x2="50%" y1="93.86%" y2="27.655%">
            <stop offset="0%" stop-color="#C0E4E3" stop-opacity="0"/>
            <stop offset="100%" stop-color="#729295"/>
        </linearGradient>
        <linearGradient id="e" x1="80.838%" x2="16.566%" y1="0%" y2="100%">
            <stop offset="0%" stop-color="#C0E4E3" stop-opacity="0"/>
            <stop offset="100%" stop-color="#729295"/>
        </linearGradient>
        <path id="f" d="M.153.084l34.162 87.142s2.513 8.788 19.087 8.788c16.52 0 18.823-8.141 18.823-8.141L107.378.083H.153z"/>
        <linearGradient id="g" x1="50%" x2="50%" y1="100%" y2="5.07%">
            <stop offset="0%" stop-color="#5C4B9E"/>
            <stop offset="100%" stop-color="#FFF" stop-opacity="0"/>
        </linearGradient>
        <path id="i" d="M89.766.493c-34.8 0-66.353 8.024-89.443 21.071v63.214c23.09-13.048 54.644-21.072 89.443-21.072 34.791 0 66.345 8.024 89.444 21.072 10.926 6.152 19.954 13.443 26.538 21.526 5.926-7.282 9.872-15.205 11.422-23.55v-.016a43.37 43.37 0 0 0 .751-8.04c0-40.98-57.375-74.205-128.155-74.205z"/>
        <linearGradient id="j" x1="95.404%" x2="30.223%" y1="80.306%" y2="37.068%">
            <stop offset="0%" stop-color="#156EAA"/>
            <stop offset="100%" stop-color="#83CFCA"/>
        </linearGradient>
        <path id="l" d="M26.895 26.859C20.29 34.94 11.23 42.232.265 48.385v63.214C21.092 99.892 35.067 84.13 38.358 66.524V.592c-1.343 10.414-5.516 18.985-11.463 26.267"/>
        <linearGradient id="m" x1="0%" y1="61.418%" y2="50%">
            <stop offset="0%" stop-color="#98DCD8"/>
            <stop offset="100%" stop-color="#3A89C8"/>
        </linearGradient>
        <path id="o" d="M1.165 21.965c-5.19 17.655 12.199 37.873 37.157 45.156 24.959 7.283 48.036-1.125 53.226-18.78 5.19-17.656-12.2-37.872-37.158-45.156C48.292 1.405 42.304.562 36.664.562c-17.443 0-31.578 8.061-35.5 21.403"/>
        <linearGradient id="p" x1="86.644%" x2="17.282%" y1="20.889%" y2="100%">
            <stop offset="0%" stop-color="#FFF"/>
            <stop offset="100%" stop-color="#8194A3"/>
        </linearGradient>
        <path id="r" d="M7.523 1.027a.561.561 0 0 1-.207.766L1.468 5.157A.566.566 0 0 1 .7 4.952l-.095-.163a.562.562 0 0 1 .206-.767L6.66.66a.565.565 0 0 1 .769.205"/>
        <path id="t" d="M7.322.71l.094.163a.561.561 0 0 1-.206.767L1.36 5.004a.566.566 0 0 1-.769-.205l-.095-.163a.562.562 0 0 1 .206-.767L6.552.505a.566.566 0 0 1 .77.206z"/>
        <path id="v" d="M7.215.557l.094.163a.562.562 0 0 1-.206.766L1.254 4.851a.567.567 0 0 1-.769-.205l-.094-.163a.562.562 0 0 1 .206-.768L6.445.352a.566.566 0 0 1 .77.205z"/>
        <path id="x" d="M.28 1.027L.375.864a.565.565 0 0 1 .77-.205l5.848 3.363a.562.562 0 0 1 .206.767l-.095.163a.566.566 0 0 1-.77.205L.487 1.793"/>
        <path id="z" d="M0 .122h40.275v51.842H0z"/>
        <path id="B" d="M0 .561h11.999v29.892H0z"/>
        <path id="D" d="M0 .14h26.098v32.986H0z"/>
        <path id="F" d="M.36.8h11.022v5.347H.36z"/>
        <path id="H" d="M0 .035h51.625v50.631H0z"/>
    </defs>
    <g fill="none" fill-rule="evenodd">
        <mask id="b" fill="#fff">
            <use xlink:href="#a"/>
        </mask>
        <g mask="url(#b)">
            <path stroke="url(#c)" stroke-width=".894" d="M100.922 127.878L0 68.996 122.03 0l122.03 68.996-100.263 58.882-21.767 11.824z" transform="translate(144.407 258.944)"/>
            <g stroke-width=".894">
                <path stroke="url(#d)" d="M93.498 87.15L26.338 48.61 107.543 2.19l81.207 46.421L122.03 87.15" transform="matrix(-1 0 0 1 190.936 204.64)"/>
                <path stroke="#729295" d="M190.497 204.64l-55.747 31.97"/>
                <path stroke="url(#e)" d="M133.004 16.642L161.536 0" transform="matrix(-1 0 0 1 190.936 204.64)"/>
            </g>
            <g stroke-width=".894">
                <path stroke="url(#d)" d="M93.498 87.15L26.338 48.61 107.543 2.19l81.207 46.421L122.03 87.15" transform="translate(345.45 204.64)"/>
                <path stroke="#729295" d="M345.888 204.64l55.748 31.97"/>
                <path stroke="url(#e)" d="M133.004 16.642L161.536 0" transform="translate(345.45 204.64)"/>
            </g>
            <path fill="#2E3C44" d="M343.574 209.157c0 24.017-33.743 43.487-75.366 43.487s-75.365-19.47-75.365-43.487c0-24.018 33.742-43.488 75.365-43.488s75.366 19.47 75.366 43.488"/>
            <path fill="#3B454C" d="M343.574 204.741c0 24.018-33.743 43.488-75.366 43.488s-75.365-19.47-75.365-43.488c0-24.017 33.742-43.488 75.365-43.488s75.366 19.471 75.366 43.488"/>
            <path fill="#273035" d="M350.317 191.155c0 24.017-36.522 43.488-81.574 43.488-45.051 0-81.573-19.47-81.573-43.488 0-24.017 36.522-43.488 81.573-43.488 45.052 0 81.574 19.47 81.574 43.488"/>
            <path fill="#59C2B8" d="M358.243 179.44c0 28.602-40.184 51.788-89.753 51.788s-89.753-23.186-89.753-51.789c0-28.602 40.184-51.789 89.753-51.789 49.57 0 89.753 23.187 89.753 51.79"/>
            <path fill="#94D4D1" d="M358.243 175.363c0 28.603-40.184 51.79-89.753 51.79s-89.753-23.187-89.753-51.79c0-28.602 40.184-51.789 89.753-51.789 49.57 0 89.753 23.187 89.753 51.79"/>
            <path fill="#A8DCD9" d="M358.243 175.763c0 28.602-40.184 51.79-89.753 51.79s-89.753-23.188-89.753-51.79c0-28.603 40.184-51.79 89.753-51.79 49.57 0 89.753 23.187 89.753 51.79"/>
            <path fill="#9BD7D5" d="M358.243 171.687c0 28.603-40.184 51.79-89.753 51.79s-89.753-23.187-89.753-51.79c0-28.602 40.184-51.79 89.753-51.79 49.57 0 89.753 23.188 89.753 51.79" opacity=".422"/>
            <path fill="#5C4B9E" d="M287.89 176.107c0 6.098-8.567 11.041-19.134 11.041s-19.133-4.943-19.133-11.041c0-6.098 8.566-11.041 19.133-11.041 10.567 0 19.134 4.943 19.134 11.041"/>
            <g transform="translate(215.308 90.776)">
                <mask id="h" fill="#fff">
                    <use xlink:href="#f"/>
                </mask>
                <path fill="url(#g)" d="M8.932.084l25.383 87.142s2.513 8.788 19.087 8.788c16.52 0 18.823-8.141 18.823-8.141L98.6.083H8.932z" mask="url(#h)" opacity=".268"/>
            </g>
            <path stroke="#FEFEFE" stroke-width=".626" d="M374.086 140.14c0 33.544-47.128 60.739-105.264 60.739-58.135 0-105.264-27.195-105.264-60.74 0-33.546 47.129-60.74 105.264-60.74 58.136 0 105.264 27.194 105.264 60.74z"/>
            <g transform="translate(184.556 .68)">
                <mask id="k" fill="#fff">
                    <use xlink:href="#i"/>
                </mask>
                <path fill="url(#j)" d="M89.766.493c-34.8 0-66.353 8.024-89.443 21.071v63.214c23.09-13.048 54.644-21.072 89.443-21.072 34.791 0 66.345 8.024 89.444 21.072 10.926 6.152 19.954 13.443 26.538 21.526 5.926-7.282 9.872-15.205 11.422-23.55v-.016a43.37 43.37 0 0 0 .751-8.04c0-40.98-57.375-74.205-128.155-74.205z" mask="url(#k)"/>
            </g>
            <g transform="translate(364.12 79.107)">
                <mask id="n" fill="#fff">
                    <use xlink:href="#l"/>
                </mask>
                <path fill="url(#m)" d="M26.895 26.859C20.29 34.94 11.23 42.232.265 48.385v63.214C21.092 99.892 35.067 84.13 38.358 66.524V.592c-1.343 10.414-5.516 18.985-11.463 26.267" mask="url(#n)"/>
            </g>
            <g>
                <path fill="#94D4D1" d="M296.947 42.795c.233 7.731-4.295 14.14-10.116 14.316-5.82.174-10.727-5.952-10.96-13.684-.235-7.732 4.294-14.141 10.114-14.316 5.82-.175 10.728 5.951 10.962 13.684" opacity=".602"/>
                <path fill="#B7FFFC" d="M291.678 42.953c.116 3.866-2.148 7.07-5.058 7.158-2.91.087-5.364-2.976-5.48-6.842-.118-3.866 2.147-7.07 5.057-7.158 2.91-.088 5.364 2.975 5.48 6.842" opacity=".518"/>
                <path fill="#8194A3" d="M249.318 82.991c-.854-1.996-6.05-16.363 1.308-20.445 0 0 1.217-7.193 3.493-8.758 9.937-6.836 32.49-11.199 32.49-11.199s-11.259 14.822-22.6 21.655c-13.73 8.274-14.691 18.747-14.691 18.747"/>
                <path fill="#73828D" d="M286.609 42.59s-5.37 4.977-8.334 6.815c-3.701 2.295-10.106 4.04-17.715 5.792-7.046 1.621-10.535 9.165-13.403 12.142l8.877-14.69 30.575-10.06z"/>
                <path fill="#F5F5F5" d="M286.609 42.59s-4.87 9.088-23.415 9.88c-11.874.508-15.463 13.13-15.463 13.13s2.834-15.851 15.81-20.185c9.468-3.162 23.068-2.826 23.068-2.826"/>
                <path fill="#8194A3" d="M300.506 114.503c1.91.452 15.694 2.946 19.959-3.365 3.838-5.678 6.116-10.316 7.73-12.3 7.048-8.674 13.121-18.557 13.121-18.557s-14.876 10.63-21.977 20.417c-8.598 11.85-18.833 13.805-18.833 13.805"/>
                <path fill="#73828D" d="M321.226 98.17l-1.886 2.528s2.717 8.182-3.68 13.742l7.607-3.476-2.04-12.794z"/>
                <path fill="#F5F5F5" d="M341.316 80.28s-23.136 10.372-19.795 20.267c2.396 7.094-4.143 13.239-4.143 13.239s15.546-4.055 20.276-14.857c3.453-7.883 3.662-18.649 3.662-18.649"/>
            </g>
            <g transform="translate(220.842 61.339)">
                <mask id="q" fill="#fff">
                    <use xlink:href="#o"/>
                </mask>
                <path fill="url(#p)" d="M1.165 21.965c-5.19 17.655 12.199 37.873 37.157 45.156 24.959 7.283 48.036-1.125 53.226-18.78 5.19-17.656-12.2-37.872-37.158-45.156C48.292 1.405 42.304.562 36.664.562c-17.443 0-31.578 8.061-35.5 21.403" mask="url(#q)"/>
            </g>
            <g>
                <path fill="#8194A3" d="M250.599 62.34c-14.187 1.849-25.204 9.434-28.592 20.963-5.19 17.656 12.199 37.873 37.157 45.157 0 0 15.115 5.108 29.749 1.358 0 0-36.835-3.852-45.482-29.742-8.38-25.094 7.168-37.736 7.168-37.736"/>
                <path stroke="#FEFEFE" stroke-width=".626" d="M374.086 81.139c0 33.546-47.128 60.74-105.264 60.74-58.135 0-105.264-27.194-105.264-60.74 0-33.546 47.129-60.74 105.264-60.74 58.136 0 105.264 27.194 105.264 60.74z"/>
                <g transform="translate(174.721 208.389)">
                    <mask id="s" fill="#fff">
                        <use xlink:href="#r"/>
                    </mask>
                    <path d="M7.523 1.027L7.428.864a.565.565 0 0 0-.77-.205L.81 4.022a.562.562 0 0 0-.206.767l.095.163c.155.267.501.36.77.205l5.847-3.364a.561.561 0 0 0 .207-.766" mask="url(#s)"/>
                </g>
                <g transform="translate(161.193 216.354)">
                    <mask id="u" fill="#fff">
                        <use xlink:href="#t"/>
                    </mask>
                    <path d="M7.322.71a.566.566 0 0 0-.77-.205L.703 3.869a.562.562 0 0 0-.206.767l.095.163c.155.267.501.36.77.205L7.21 1.64a.561.561 0 0 0 .206-.767L7.322.711z" mask="url(#u)"/>
                </g>
                <g transform="translate(147.664 224.32)">
                    <mask id="w" fill="#fff">
                        <use xlink:href="#v"/>
                    </mask>
                    <path d="M7.215.557a.566.566 0 0 0-.77-.205L.597 3.715a.562.562 0 0 0-.206.768l.094.163a.567.567 0 0 0 .77.205l5.848-3.365A.562.562 0 0 0 7.31.72L7.215.557z" mask="url(#w)"/>
                </g>
                <g transform="translate(353.67 208.389)">
                    <mask id="y" fill="#fff">
                        <use xlink:href="#x"/>
                    </mask>
                    <path d="M.28 1.027L.375.864a.565.565 0 0 1 .77-.205l5.848 3.363a.562.562 0 0 1 .206.767l-.095.163a.566.566 0 0 1-.77.205L.487 1.793a.562.562 0 0 1-.206-.766" mask="url(#y)"/>
                </g>
            </g>
            <g>
                <path fill="#FFF" d="M78.131 247.334a1.1 1.1 0 0 0-1.402.67l-.974 2.765a5.811 5.811 0 0 0 1.045 5.67l.986 1.16a2.852 2.852 0 0 0 4.295.065l1.02-1.132a5.807 5.807 0 0 0 1.214-5.635l-.892-2.792a1.1 1.1 0 0 0-1.38-.712"/>
                <g transform="rotate(1 -11035.463 3586.151)">
                    <mask id="A" fill="#fff">
                        <use xlink:href="#z"/>
                    </mask>
                    <path fill="#A1D9D7" d="M33.169 29.998a16.352 16.352 0 0 1 4.877 11.637l.023 6.643-9.534-8.524 1.572-12.79 3.062 3.034zM2.22 48.398l-.023-6.644a16.352 16.352 0 0 1 4.787-11.658l3.343-3.165 1.38 12.869-9.487 8.598zM20.172.122a2.55 2.55 0 0 0-1.888.868l-.675.77c-6.05 6.908-8.96 13.904-7.982 23.025l.407-.6-4.573 4.332A18.53 18.53 0 0 0 0 41.761l.03 9.11c.001.433.258.826.656 1 .397.175.86.1 1.182-.191l10.13-9.181.094.876c.047.443.357.813.785.937.43.124.863.239 1.298.34l.446 5c.038.428.323.793.728.937 1.56.55 3.177.83 4.803.831 1.666.002 3.32-.289 4.914-.864a1.102 1.102 0 0 0 .72-.921c.09-.893.18-1.935.269-2.943.062-.718.127-1.453.19-2.136.359-.09.716-.187 1.07-.293.18-.053.338-.15.465-.278.17-.169.282-.392.312-.639l.115-.939 10.234 9.15a1.103 1.103 0 0 0 1.514-.043c.202-.203.32-.48.319-.777l-.031-9.109a18.528 18.528 0 0 0-5.527-13.186l-4.27-4.233.392 1.198c1.177-9.569-1.885-16.944-8.399-24.063L22.08.949a2.547 2.547 0 0 0-1.907-.827z" mask="url(#A)"/>
                </g>
                <path fill="#6353A2" d="M77.82 209.456a4.633 4.633 0 0 0-1.42 3.28c-.038 2.573 2.03 4.697 4.609 4.736a4.667 4.667 0 0 0 3.326-1.319 4.65 4.65 0 0 0 1.42-3.278c.04-2.573-2.028-4.698-4.607-4.736a4.655 4.655 0 0 0-3.328 1.317"/>
                <g transform="rotate(1 -12377.021 3574.443)">
                    <mask id="C" fill="#fff">
                        <use xlink:href="#B"/>
                    </mask>
                    <path fill="#59C2B8" d="M10.034.561L5.46 4.893A18.529 18.529 0 0 0 0 18.138l.03 9.84c.002.435.26.826.657 1 .397.175 1.32 1.73 1.64 1.438L12 18.875" mask="url(#C)"/>
                </g>
                <path fill="#6251A1" d="M72.123 219.486l-4.649 4.252-.023.022a18.528 18.528 0 0 0-5.667 13.125l-.128 9.11a1.1 1.1 0 0 0 1.824.84l10.288-9.003"/>
                <path fill="#59C2B8" d="M89.675 235.94l9.468 11.708c.316.298 1.265-1.24 1.665-1.408.4-.168.664-.555.673-.989l.203-9.839a18.525 18.525 0 0 0-5.206-13.315l-.022-.022-4.497-4.411"/>
                <path fill="#6251A1" d="M87.996 238.08l9.968 9.356a1.1 1.1 0 0 0 1.851-.776l.19-9.107a18.525 18.525 0 0 0-5.205-13.315l-.022-.023-4.498-4.411"/>
            </g>
            <g>
                <path fill="#504188" d="M467.253 264.112c-6.48 2.046-14.064 3.144-21.934 3.176-7.689.03-15.151-.948-21.58-2.831-.175-.052-.296-.13-.342-.221-1.695-3.379-1.158-6.884 1.553-10.138 2.775-3.331 7.667-6.173 14.147-8.22l15.118-4.775c.282-.088.665-.083.933.014l18.133 6.556c.47.17.879.368 1.218.587.34.22.61.462.8.72l7.366 9.957c.108.146-.012.311-.293.4l-15.119 4.775zm18.365-5.622l-7.365-9.957c-.572-.773-1.618-1.451-3.027-1.96l-18.133-6.556c-1.34-.484-3.256-.512-4.66-.068l-15.12 4.775c-6.997 2.21-12.28 5.28-15.278 8.877-2.926 3.513-3.506 7.298-1.675 10.946.113.226.32.436.605.621s.65.345 1.08.47c6.943 2.034 15 3.092 23.3 3.058 8.502-.033 16.694-1.22 23.691-3.43l15.12-4.774c1.405-.444 2.006-1.268 1.462-2.002z"/>
                <path fill="#6150A1" d="M467.253 262.36c-6.48 2.046-14.064 3.145-21.934 3.176-7.689.03-15.151-.948-21.58-2.831-.175-.051-.296-.13-.342-.221-1.695-3.378-1.158-6.884 1.553-10.138 2.775-3.33 7.667-6.173 14.147-8.22l15.118-4.774c.282-.089.665-.083.933.013l18.133 6.556c.47.17.879.368 1.218.588.34.22.61.461.8.719l7.366 9.957c.108.147-.012.311-.293.4l-15.119 4.775zm18.365-5.622l-7.365-9.957c-.572-.773-1.618-1.45-3.027-1.96l-18.133-6.556c-1.34-.484-3.256-.512-4.66-.068l-15.12 4.775c-6.997 2.21-12.28 5.28-15.278 8.877-2.926 3.513-3.506 7.298-1.675 10.947.113.226.32.436.605.62.285.185.65.345 1.08.471 6.943 2.034 15 3.09 23.3 3.058 8.502-.034 16.694-1.22 23.691-3.43l15.12-4.775c1.405-.444 2.006-1.267 1.462-2.002z"/>
                <path fill="#6150A1" d="M467.253 260.952c-6.48 2.047-14.064 3.145-21.934 3.176-7.689.031-15.151-.948-21.58-2.83-.175-.052-.296-.13-.342-.222-1.695-3.378-1.158-6.884 1.553-10.137 2.775-3.331 7.667-6.174 14.147-8.22l15.118-4.775c.282-.089.665-.083.933.014l18.133 6.556c.47.17.879.367 1.218.587.34.22.61.462.8.72l7.366 9.956c.108.147-.012.312-.293.4l-15.119 4.775zm18.365-5.622l-7.365-9.957c-.572-.773-1.618-1.45-3.027-1.96l-18.133-6.556c-1.34-.483-3.256-.512-4.66-.068l-15.12 4.775c-6.997 2.21-12.28 5.28-15.278 8.878-2.926 3.513-3.506 7.298-1.675 10.946.113.226.32.436.605.62.285.186.65.345 1.08.471 6.943 2.034 15 3.091 23.3 3.058 8.502-.034 16.694-1.22 23.691-3.43l15.12-4.775c1.405-.444 2.006-1.267 1.462-2.002z"/>
                <path fill="#3E9189" d="M470.1 244.759c-.143-.193-.405-.363-.757-.49l-13.514-4.886c-.804-.29-1.953-.307-2.797-.04l-10.697 3.377c-5.652 1.786-9.88 4.271-12.225 7.188-1.82 2.262-2.427 4.708-1.758 7.075.049.172.189.332.401.47.213.138.498.253.838.332 4.682 1.1 9.97 1.683 15.292 1.69 6.863.009 13.48-.93 19.132-2.716l10.696-3.378c.844-.266 1.205-.76.878-1.201l-5.49-7.421z"/>
                <path fill="#A1D9D7" d="M470.1 242.475c-.143-.193-.405-.362-.757-.49L455.83 237.1c-.804-.29-1.953-.307-2.797-.04l-10.697 3.378c-5.652 1.785-9.88 4.27-12.225 7.188-1.82 2.262-2.427 4.708-1.758 7.075.049.171.189.332.401.47.213.137.498.252.838.332 4.682 1.099 9.97 1.683 15.292 1.69 6.863.008 13.48-.931 19.132-2.716l10.696-3.378c.844-.267 1.205-.761.878-1.202l-5.49-7.42z"/>
                <g transform="rotate(15 -506.555 1779.302)">
                    <mask id="E" fill="#fff">
                        <use xlink:href="#D"/>
                    </mask>
                    <path fill="#A1D9D7" d="M25.6 8.592c.396.383.587 4.218-.09 6.36-.517 1.634-1.487 4.929-1.487 4.929s-1.374 3.161-3.069 5.514c-1.649 2.287-3.845 4.053-5.664 6.17-.456.531-.775 1.194-1.43 1.56-.224-.746-.768-1.253-1.396-1.694-2.047-1.445-4.405-2.069-6.885-2.278-1.002-.084-2.076-.067-2.734.927.078-1.448-.105-3.744-.364-4.294-.077-.163-.262-1.45-.262-1.45-.986-3.365-1.243-5.688-1.103-8.624.032-.69-.231-2.184-.18-2.073.052.11-.22-3.35-.611-4.179-.24-.51-.573-1.108-.07-1.61.524-.524 1.24-.458 1.935-.31 1.14.242 2.112 1.093 2.476 1.868.713 2.157 1.195 4.369 1.656 6.585.056.27.043.633.402.694.29.05.384-.282.554-.454 1.978-2.021 3.648-4.24 4.724-6.837 1.407-2.3 2.416-4.787 3.647-7.17.208-.402.373-.835.645-1.195.92-1.218 2.4-1.113 2.958.074-.14.429-.253.867-.422 1.286-1.033 2.565-2.08 5.124-3.117 7.687-.148.363-.517.83.032 1.071.605.267.789-.31.97-.71.445-.977 1.271-2.955 1.271-2.955s2.116-5.178 2.462-6.12c1.299-.6 1.622.033 1.925.676 0 0-.22 1.318-.345 1.72-.824 2.631-1.802 5.213-2.822 7.78-.15.377-.408.855.122 1.075.579.243.691-.324.837-.68 1.181-2.857 2.392-5.707 3.122-8.714 1.544.776 2.128 1.774 1.425 3.787-.321.808-1.211 3.12-1.211 3.12s-1.492 3.944-2.877 6.908c-.158.337-.318.778.116.988.478.23.68-.226.83-.547.647-1.386 1.304-2.769 1.883-4.183.67-1.636 1.26-3.302 1.886-4.954 0 0 .259.248.26.252z" mask="url(#E)"/>
                </g>
                <g transform="rotate(15 -615.358 1774.555)">
                    <mask id="G" fill="#fff">
                        <use xlink:href="#F"/>
                    </mask>
                    <path fill="#FFF" d="M.366 1.759C1.024.764 2.098.747 3.101.83c2.478.21 4.836.833 6.885 2.28.626.44 1.172.946 1.396 1.693-.275 1.306-1.423 1.366-2.401 1.34-2.735-.075-5.282-.82-7.486-2.44C.84 3.222.289 2.647.366 1.759" mask="url(#G)"/>
                </g>
            </g>
            <g>
                <g transform="translate(241.855 290.575)">
                    <mask id="I" fill="#fff">
                        <use xlink:href="#H"/>
                    </mask>
                    <path fill="#A1D9D7" d="M23.876 23.763c-.402.068-.569.33-.509.71.047.306.268.486.591.424.377-.07.577-.332.523-.712-.045-.317-.294-.437-.605-.422m-3.329-.664c-.239.056-.494.202-.496.602-.002.311.169.524.461.563.363.051.643-.116.684-.503.045-.38-.144-.613-.649-.662m7.02 1.845c-.02-.354-.167-.651-.54-.69-.47-.05-.69.245-.66.69.024.359.242.6.615.617.408.02.544-.262.585-.617M6.554 6.42c.519-.047.81-.326.776-.851-.035-.532-.362-.772-.883-.73-.456.039-.686.32-.693.758-.006.524.268.807.8.823m8.94.672c-.112-.418-.432-.656-.932-.602-.492.054-.826.324-.779.856.043.53.414.744.91.709.524-.037.742-.388.802-.963m-4.744.258c.536-.08.795-.415.756-.905-.043-.57-.418-.903-.982-.876-.509.024-.785.369-.75.884.045.596.451.827.976.897M17.6 42.376c-.163 1.218.352 1.86 1.57 2.076 8.146 1.455 16.286 2.938 24.428 4.414 1.21.218 1.823-.157 1.956-1.505.46-4.612.987-9.218 1.57-13.818.196-1.525-.32-2.224-1.831-2.488-5.652-.98-11.292-2.033-16.935-3.062-2.334-.426-4.663-.886-7.003-1.272-.87-.144-1.873-.282-2.03 1.025-.586 4.876-1.153 9.754-1.725 14.63M2.714 30.106c-.218.895.254 1.431 1.448 1.627 3.64.604 7.28 1.248 10.894 1.994 1.176.243 1.397-.146 1.487-1.177.266-2.967.591-5.928.95-8.884.416-3.383 2.774-5.053 6.12-4.451 4.77.862 9.552 1.657 14.316 2.544 1.084.202 1.648.155 1.636-1.177-.01-1.15.17-2.316.405-3.447.328-1.555-.265-2.163-1.796-2.419-5.215-.872-10.411-1.866-15.616-2.806-5.26-.948-10.528-1.87-15.784-2.84-1.057-.197-1.648-.058-1.784 1.197-.712 6.523-1.49 13.04-2.276 19.84m42.674-19.582c-.332 3.018-.653 6.709-1.185 10.368-.233 1.614.282 2.218 1.809 2.35 1.093.095 2.18.343 3.258.573 1.75.376 2.509 1.291 2.33 3.043-.664 6.482-1.337 12.964-2.103 19.434-.33 2.781-3.213 4.779-5.93 4.305-8.42-1.474-16.843-2.949-25.263-4.425-2.391-.418-3.093-1.332-2.857-3.758.155-1.594.334-3.185.54-4.775.13-1.016-.05-1.587-1.27-1.773-3.655-.55-7.28-1.28-10.925-1.89-3.152-.53-4.068-1.66-3.724-4.819C.93 21.2 1.783 13.24 2.69 5.286 3.064 1.998 6.263-.433 9.472.111a8137.751 8137.751 0 0 1 32.45 5.606c2.949.515 3.76 1.53 3.466 4.808" mask="url(#I)"/>
                </g>
                <path fill="#5F4FA0" d="M249.149 306.018c-.66-.08-1.119-.06-1.215.52-.108.639.393.682.834.758 1.137.198 2.278.386 3.413.6.463.089.929.149 1.091-.406.173-.592-.302-.77-.741-.857-1.189-.236-2.383-.435-3.382-.615m5.058 5.284c.581 0 1.05.163 1.09-.43.023-.347-.13-.644-.531-.716-2.225-.394-4.445-.794-6.672-1.175-.348-.058-.677.07-.741.476-.068.416.226.588.57.654 2.165.418 4.33.824 6.284 1.191m.707-6.304c.71.05 1.29.296 1.394-.473.066-.492-.307-.663-.712-.736-2.114-.377-4.229-.75-6.344-1.113-.396-.066-.81-.047-.909.466-.117.623.36.742.793.823 2.002.37 4.007.72 5.778 1.033m-10.346 15.683c.787-6.8 1.565-13.317 2.278-19.84.136-1.255.725-1.393 1.784-1.198 5.256.971 10.52 1.893 15.783 2.841 5.205.94 10.402 1.936 15.617 2.806 1.528.256 2.122.864 1.796 2.419-.235 1.132-.416 2.298-.406 3.447.013 1.332-.554 1.38-1.635 1.177-4.764-.886-9.547-1.682-14.317-2.544-3.345-.602-5.705 1.068-6.12 4.451a279.2 279.2 0 0 0-.949 8.884c-.093 1.03-.311 1.42-1.487 1.177-3.615-.746-7.254-1.39-10.896-1.994-1.195-.195-1.664-.731-1.448-1.626"/>
                <path fill="#5F4FA0" d="M279.495 330.789c.406.707-.04 2.36.874 2.562 1.205.27 2.072-1.004 2.69-2.07.327-.56.758-1.32.395-1.84-.35-.504-1.122-.075-1.707.02-.542.089-1.084.175-1.625.264-.486.08-.847.26-.627 1.064m-17.58-3.69c-.03 1.317.843 1.882 2.913 1.976 1.788.083 1.395-1.422 1.555-2.352.217-1.237-.667-1.697-2.854-1.814-1.83-.095-1.255 1.408-1.613 2.19m7.882-4.965c.194-1.046-.344-1.625-1.474-1.802-1.245-.196-2.482-.454-3.724-.668-.884-.15-1.712-.147-1.764 1.068-.04 1.053-.803 2.4 1.05 2.731 1.243.223 2.48.473 3.727.67 1.757.285 2.138-.057 2.185-2m4.29 6.98c.023 2.232 1.782 4.234 3.978 4.659 1.04.2 1.15-.219.95-1.052-.21-.857-.394-1.717-.587-2.577-.178-.79 0-1.247.939-1.305 1.038-.068 2.072-.27 3.104-.439.832-.136 1.108-.466.673-1.354-.922-1.895-3.06-3.097-5.017-2.68-2.406.51-4.064 2.459-4.04 4.747m-14.632 3.84c.573-4.877 1.137-9.757 1.724-14.632.159-1.308 1.162-1.167 2.031-1.025 2.338.388 4.668.845 7.001 1.272 5.644 1.029 11.286 2.082 16.937 3.064 1.51.264 2.025.96 1.83 2.488a508.77 508.77 0 0 0-1.568 13.817c-.136 1.347-.748 1.724-1.957 1.503-8.144-1.476-16.284-2.956-24.43-4.412-1.217-.218-1.732-.857-1.568-2.076"/>
                <path fill="#6251A1" d="M252.607 297.924c-.526-.07-.931-.3-.977-.896-.035-.516.241-.862.75-.885.564-.027.94.307.983.876.039.491-.22.825-.756.905M257.35 297.667c-.058.575-.278.925-.802.963-.496.035-.867-.18-.91-.71-.047-.532.288-.802.779-.855.5-.054.82.183.933.602M248.409 296.994c-.532-.016-.806-.299-.8-.82.007-.441.24-.722.693-.76.52-.042.848.197.883.729.035.526-.257.806-.776.851M269.422 315.521c-.041.353-.177.635-.585.615-.373-.017-.59-.258-.616-.617-.028-.445.192-.74.662-.69.372.039.519.336.54.692M262.402 313.673c.505.05.694.284.65.662-.042.39-.322.554-.685.503-.292-.04-.463-.252-.461-.563.002-.398.257-.546.496-.602M265.733 314.335c.31-.012.558.108.604.425.053.38-.146.641-.523.711-.324.062-.544-.117-.592-.424-.06-.38.108-.642.511-.712"/>
                <path fill="#FAFCFB" d="M254.914 304.997c-1.77-.313-3.776-.661-5.778-1.032-.432-.08-.91-.2-.79-.821.096-.513.512-.534.906-.468 2.115.363 4.23.736 6.344 1.113.405.072.778.244.712.736-.105.771-.684.522-1.394.472M254.208 311.303c-1.955-.369-4.12-.775-6.285-1.191-.343-.066-.638-.237-.57-.656.064-.406.393-.532.741-.474 2.227.381 4.447.781 6.672 1.173.402.074.554.369.531.715-.039.594-.508.431-1.09.433M249.149 306.018c.999.18 2.193.38 3.382.615.439.086.914.265.741.857-.162.555-.628.495-1.091.406-1.135-.214-2.276-.402-3.413-.6-.441-.076-.942-.12-.834-.758.096-.58.556-.6 1.215-.52"/>
                <path fill="#FFF" d="M274.089 329.111c-.025-2.286 1.633-4.236 4.039-4.748 1.957-.416 4.095.786 5.017 2.68.435.891.159 1.221-.673 1.355-1.032.17-2.066.373-3.104.44-.94.059-1.117.515-.94 1.304.194.86.377 1.722.588 2.58.2.83.09 1.249-.95 1.05-2.196-.424-3.955-2.428-3.977-4.66M269.798 322.133c-.047 1.942-.428 2.284-2.185 2.002-1.246-.2-2.484-.45-3.726-.67-1.854-.334-1.092-1.68-1.05-2.734.051-1.214.879-1.218 1.763-1.066 1.242.213 2.48.47 3.724.666 1.13.177 1.668.757 1.474 1.802M261.916 327.098c.358-.781-.215-2.284 1.612-2.19 2.188.118 3.071.578 2.855 1.815-.16.93.233 2.435-1.555 2.352-2.07-.095-2.943-.66-2.912-1.977"/>
                <path fill="#FFF" d="M279.495 330.789c-.22-.804.14-.984.627-1.064.541-.089 1.083-.175 1.625-.264.585-.095 1.357-.524 1.707-.02.363.52-.068 1.28-.395 1.84-.618 1.066-1.485 2.34-2.69 2.07-.915-.202-.468-1.855-.874-2.562"/>
            </g>
        </g>
    </g>
</svg>
